<?xml version="1.0" encoding="UTF-8"?>
<svg version="1.1" xmlns="http://www.w3.org/2000/svg" width="300" height="300">
<path d="M0 0 C1.28197266 -0.03673828 1.28197266 -0.03673828 2.58984375 -0.07421875 C8.84405725 -0.10348964 8.84405725 -0.10348964 11.92578125 2.14453125 C12.44527344 2.88058594 12.96476563 3.61664063 13.5 4.375 C13.97824219 5.04660156 14.45648438 5.71820313 14.94921875 6.41015625 C15.35785156 7.07917969 15.76648438 7.74820312 16.1875 8.4375 C16.60386719 9.10910156 17.02023438 9.78070313 17.44921875 10.47265625 C20.21604929 15.48175094 20.1929331 20.80869129 19.5 26.375 C18.1998173 29.36190621 16.45118723 31.78321214 14.5 34.375 C13.984375 35.344375 13.46875 36.31375 12.9375 37.3125 C11.21473879 39.78428782 10.35336182 39.8206659 7.5 40.375 C10.90980383 41.23755907 13.98856762 41.78501755 17.5 41.375 C19.56796756 39.50687804 20.7758094 37.67464847 22.1484375 35.2578125 C23.5 33.375 23.5 33.375 25.5390625 32.6796875 C26.18617188 32.57914063 26.83328125 32.47859375 27.5 32.375 C28.49 31.88 28.49 31.88 29.5 31.375 C32.16007481 31.22448434 34.77654185 31.14372266 37.4375 31.125 C38.16646484 31.104375 38.89542969 31.08375 39.64648438 31.0625 C44.98477448 31.0233558 44.98477448 31.0233558 47.30859375 32.609375 C47.70175781 33.19203125 48.09492188 33.7746875 48.5 34.375 C49.01820313 35.0865625 49.53640625 35.798125 50.0703125 36.53125 C50.58335937 37.3046875 51.09640625 38.078125 51.625 38.875 C52.14320313 39.6484375 52.66140625 40.421875 53.1953125 41.21875 C55.9466846 45.76592784 56.11139403 50.20746416 55.5 55.375 C53.777981 60.38045419 50.92024126 64.36506197 47.5 68.375 C47.17 69.035 46.84 69.695 46.5 70.375 C38.74645715 71.95735568 29.99052685 72.37733796 22.5 69.375 C20.625 66.9375 20.625 66.9375 19.5 64.375 C18.37359395 62.41459519 18.37359395 62.41459519 16.5 61.375 C12.13220784 61.44912011 9.44231607 62.04314184 6.33203125 65.0625 C5.30964974 66.15198763 4.30326592 67.25668424 3.3125 68.375 C-2.35049768 74.6208475 -2.35049768 74.6208475 -6.5 75.375 C-6.5 76.035 -6.5 76.695 -6.5 77.375 C-11.45 77.375 -16.4 77.375 -21.5 77.375 C-21.5 83.975 -21.5 90.575 -21.5 97.375 C-16.6428125 97.5296875 -16.6428125 97.5296875 -11.6875 97.6875 C-10.16225708 97.75578003 -10.16225708 97.75578003 -8.60620117 97.82543945 C-6.15446034 97.8634909 -3.91085465 97.83790859 -1.5 97.375 C0.61553407 95.09461346 0.61553407 95.09461346 1.5 92.375 C3.5625 90.6875 3.5625 90.6875 5.5 89.375 C6.16 88.715 6.82 88.055 7.5 87.375 C8.83333333 86.04166667 10.16666667 84.70833333 11.5 83.375 C12.09888535 82.68217422 12.69777069 81.98934845 13.31480408 81.27552795 C15.95712924 78.9774215 17.13407266 78.86566127 20.58813477 78.84155273 C21.59920792 78.8257164 22.61028107 78.80988007 23.6519928 78.79356384 C24.73749924 78.79852371 25.82300568 78.80348358 26.94140625 78.80859375 C28.06062973 78.80239517 29.17985321 78.79619659 30.33299255 78.78981018 C32.69749074 78.78270971 35.0620389 78.7858899 37.42651367 78.79858398 C41.05285056 78.81246307 44.67661496 78.77836262 48.30273438 78.74023438 C50.59895897 78.73928335 52.8951868 78.7411411 55.19140625 78.74609375 C56.27893692 78.73283554 57.36646759 78.71957733 58.48695374 78.70591736 C61.24896227 78.74026188 63.79600104 78.81117275 66.5 79.375 C68.52783203 81.69458008 68.52783203 81.69458008 69.5 84.375 C74.20146905 90.52804455 79.69913551 97.27392482 87.2890625 99.47265625 C90.74827072 99.67635695 94.04646471 99.62481156 97.5 99.375 C100.08299398 99.44000824 101.98062036 99.70316543 104.5 100.375 C106.125 102.4375 106.125 102.4375 107.5 105.375 C107.92410156 105.931875 108.34820312 106.48875 108.78515625 107.0625 C112.52181591 112.05859091 113.25409629 116.27277713 112.99609375 122.47265625 C112.23054363 126.95142587 110.20224315 129.82676583 107.5 133.375 C106.819375 134.8290625 106.819375 134.8290625 106.125 136.3125 C104.5 138.375 104.5 138.375 101.37890625 138.984375 C97.50855438 139.37413853 93.70176613 139.61278205 89.8125 139.6875 C87.88857422 139.74357422 87.88857422 139.74357422 85.92578125 139.80078125 C82.5 139.375 82.5 139.375 80.24609375 137.69921875 C75.51383264 131.40012399 71.96723045 125.39714947 72.875 117.375 C73.10065824 112.75889636 72.18564779 110.17536639 69.15849304 106.63887024 C63.74848386 101.01872423 59.46310007 98.27067943 51.54296875 97.89453125 C48.24465717 97.85325178 44.979595 97.99565835 41.6875 98.1875 C40.83296234 98.21697723 39.97842468 98.24645447 39.09799194 98.27682495 C27.51869162 98.52368556 27.51869162 98.52368556 17.6328125 103.828125 C15.87271959 105.82275175 14.35416407 107.87794755 12.83007812 110.05639648 C10.23020977 113.46069179 8.62401804 115.12967447 4.33886719 116.06494141 C-2.81330402 116.59148752 -9.9034649 116.19980698 -17.0324707 115.49951172 C-19.50389889 115.17206576 -19.50389889 115.17206576 -21.5 116.375 C-21.5 122.645 -21.5 128.915 -21.5 135.375 C-19.93000244 135.375 -18.36000488 135.375 -16.74243164 135.375 C-0.66162109 135.375 15.41918945 135.375 31.5 135.375 C32.36884914 134.27719737 33.19556981 133.14584533 34 132 C34.4434375 131.37351563 34.886875 130.74703125 35.34375 130.1015625 C36.55248854 128.37510947 36.55248854 128.37510947 37.5 126.375 C42.35101888 125.42935834 47.1902766 125.13065459 52.125 125 C53.39601562 124.95101562 54.66703125 124.90203125 55.9765625 124.8515625 C60.42457384 125.51235354 61.73299553 126.90880623 64.5 130.375 C65.828125 132.47265625 65.828125 132.47265625 66.75 134.4375 C67.06453125 135.08847656 67.3790625 135.73945313 67.703125 136.41015625 C69.83589313 141.66889335 70.45012418 146.62713047 68.55859375 152.09765625 C66.28886489 157.38420341 64.21770799 161.95466171 59.5 165.375 C56.6875 165.6875 56.6875 165.6875 54.5 165.375 C54.5 166.035 54.5 166.695 54.5 167.375 C47.28800752 167.8444968 42.35462579 167.85939422 36.5 163.375 C35.25 161.375 35.25 161.375 34.5 159.375 C32.63683442 156.75993511 32.63683442 156.75993511 30.5 154.375 C30.5 154.705 30.5 155.035 30.5 155.375 C13.34 155.375 -3.82 155.375 -21.5 155.375 C-21.5 161.645 -21.5 167.915 -21.5 174.375 C-18.89447498 175.67776251 -16.92669267 175.51830178 -14.01171875 175.55078125 C-12.91279297 175.57462891 -11.81386719 175.59847656 -10.68164062 175.62304688 C-8.36411587 175.66579607 -6.04635149 175.69716529 -3.72851562 175.71679688 C4.79560112 175.93102073 4.79560112 175.93102073 8.54296875 178.29296875 C9.18878906 178.98003906 9.83460938 179.66710937 10.5 180.375 C11.13687744 180.66511963 11.77375488 180.95523926 12.42993164 181.25415039 C14.91631835 182.6004178 15.89139048 184.13855071 17.578125 186.390625 C23.39613187 192.32703719 30.82780562 191.9253724 38.6796875 192.06494141 C41.23826614 192.12472582 43.77508548 192.29086249 46.328125 192.46484375 C54.0695762 192.79902782 60.09126525 192.67296106 66.08294678 187.32244873 C69.48690517 183.87022945 72.21131362 181.1045128 73.04101562 176.13378906 C72.97145227 173.28193487 72.97145227 173.28193487 72.60546875 170.33984375 C72.38955782 164.27034752 75.55824799 158.60513102 79.47265625 154.109375 C84.79838743 149.55325815 94.71073779 151.2400357 101.375 151.5625 C104.5 152.375 104.5 152.375 106.125 154.4375 C106.805625 155.8915625 106.805625 155.8915625 107.5 157.375 C107.92410156 157.931875 108.34820312 158.48875 108.78515625 159.0625 C112.52181591 164.05859091 113.25409629 168.27277713 112.99609375 174.47265625 C112.23222783 178.94157262 110.21449489 181.84288617 107.5 185.375 C106.984375 186.344375 106.46875 187.31375 105.9375 188.3125 C104.5 190.375 104.5 190.375 102.5 191.125 C101.84 191.2075 101.18 191.29 100.5 191.375 C99.51 191.705 98.52 192.035 97.5 192.375 C95.89462117 192.31973739 94.29017323 192.233322 92.6875 192.125 C88.93109556 192.06485379 86.95322449 192.28807456 84.125 194.8125 C83.25875 195.658125 82.3925 196.50375 81.5 197.375 C80.58927734 197.55095703 80.58927734 197.55095703 79.66015625 197.73046875 C76.38838513 198.70667532 74.67991786 200.83712212 72.3125 203.25 C71.43207031 204.13429687 70.55164063 205.01859375 69.64453125 205.9296875 C67.32390996 208.25698956 67.32390996 208.25698956 66.5 211.375 C59.29181655 211.45094813 52.08373595 211.50355678 44.87524414 211.53979492 C42.42207992 211.55489881 39.96894276 211.57538321 37.51586914 211.60131836 C33.99358445 211.63763057 30.47165619 211.65471036 26.94921875 211.66796875 C25.29910042 211.69119453 25.29910042 211.69119453 23.61564636 211.71488953 C22.08439873 211.71522942 22.08439873 211.71522942 20.5222168 211.71557617 C19.17319527 211.72556892 19.17319527 211.72556892 17.79692078 211.73576355 C15.02962828 211.30112154 14.23953645 210.51102 12.5 208.375 C11.984375 207.859375 11.46875 207.34375 10.9375 206.8125 C8.18886047 204.06386047 5.696978 201.2286944 3.23046875 198.2265625 C-0.24258704 194.5104712 -2.18645646 192.517748 -7.41796875 191.94921875 C-8.84154375 191.96633852 -10.26500114 192.00457018 -11.6875 192.0625 C-12.41130859 192.07216797 -13.13511719 192.08183594 -13.88085938 192.09179688 C-17.82103804 192.12934417 -17.82103804 192.12934417 -21.5 193.375 C-21.5 199.975 -21.5 206.575 -21.5 213.375 C-16.55 213.375 -11.6 213.375 -6.5 213.375 C-5.84 214.695 -5.18 216.015 -4.5 217.375 C-2.93135928 219.29415441 -2.93135928 219.29415441 -1.125 221.0625 C-0.24714844 221.96548828 -0.24714844 221.96548828 0.6484375 222.88671875 C2.64305741 224.48998918 4.03298218 224.85973678 6.5 225.375 C7.11875 226.1175 7.11875 226.1175 7.75 226.875 C10.61402515 229.3298787 13.80324285 229.07198712 17.5 229.375 C17.9125 228.6325 18.325 227.89 18.75 227.125 C20.84274163 223.836406 22.7094418 220.91759339 26.5625 219.75 C27.201875 219.62625 27.84125 219.5025 28.5 219.375 C29.49 218.715 30.48 218.055 31.5 217.375 C33.4375 217.109375 33.4375 217.109375 35.5 217.125 C36.180625 217.11984375 36.86125 217.1146875 37.5625 217.109375 C39.5 217.375 39.5 217.375 42.5 219.375 C43.49 219.5296875 43.49 219.5296875 44.5 219.6875 C47.47492667 220.71013104 48.02187849 222.66511056 49.5 225.375 C50.5209375 226.6125 50.5209375 226.6125 51.5625 227.875 C55.09060622 232.42739512 55.94709232 236.3601621 55.82421875 242.03125 C55.06355384 247.53003246 51.93100066 252.12709442 48.5 256.375 C48.17 257.035 47.84 257.695 47.5 258.375 C44.4375 259 44.4375 259 41.5 259.375 C41.5 260.035 41.5 260.695 41.5 261.375 C39.43816367 261.45650744 37.37538651 261.5144194 35.3125 261.5625 C34.16394531 261.59730469 33.01539063 261.63210938 31.83203125 261.66796875 C28.19656285 261.3483203 26.39448748 260.54586561 23.5 258.375 C22.4375 256.5 22.4375 256.5 21.5 254.375 C20.1949419 252.68610128 18.86639342 251.0146721 17.5 249.375 C17.17 249.705 16.84 250.035 16.5 250.375 C14.98071962 250.44679964 13.45832518 250.45892007 11.9375 250.4375 C11.11121094 250.42847656 10.28492188 250.41945312 9.43359375 250.41015625 C8.79550781 250.39855469 8.15742188 250.38695312 7.5 250.375 C8.1290625 250.49488281 8.758125 250.61476562 9.40625 250.73828125 C11.5 251.375 11.5 251.375 13 253.5625 C13.495 254.490625 13.99 255.41875 14.5 256.375 C15.20125 257.40625 15.9025 258.4375 16.625 259.5 C19.96891466 264.62733581 20.15505001 269.40873365 19.5 275.375 C18.48863848 278.26889585 17.09257695 280.76526624 15.5 283.375 C15.025625 284.32375 14.55125 285.2725 14.0625 286.25 C12.07370533 288.95476075 10.69438707 289.38699956 7.5 290.375 C4.2734375 290.53515625 4.2734375 290.53515625 0.875 290.4375 C-3.89832592 290.29783522 -3.89832592 290.29783522 -8.5 291.375 C-12.5125075 289.16402648 -14.6511813 287.50631093 -16.5 283.375 C-16.85320312 282.66859375 -17.20640625 281.9621875 -17.5703125 281.234375 C-18.546875 279.28125 -19.5234375 277.328125 -20.5 275.375 C-21.16 275.375 -21.82 275.375 -22.5 275.375 C-22.70109375 274.32183594 -22.9021875 273.26867187 -23.109375 272.18359375 C-24.60055246 267.03851193 -28.22997672 264.89689091 -32.63232422 262.34741211 C-36.40587909 260.51482783 -37.95924464 260.22083216 -42.1171875 261.40625 C-45.21059054 263.03803403 -48.02803653 265.0339552 -50.82275391 267.12939453 C-63.7933051 276.76196399 -63.7933051 276.76196399 -71.0390625 276.12109375 C-76.35539112 274.50931793 -80.99567668 271.47294075 -85.65966797 268.52587891 C-87.50560797 267.37149297 -89.37342603 266.26503826 -91.25390625 265.16796875 C-100.36300329 259.78599012 -100.36300329 259.78599012 -101.5 256.375 C-102.53125 256.2925 -103.5625 256.21 -104.625 256.125 C-108.83397057 255.31036054 -111.18168257 254.04584086 -114.5 251.375 C-114.5 250.715 -114.5 250.055 -114.5 249.375 C-115.36625 249.2925 -116.2325 249.21 -117.125 249.125 C-121.01107778 248.26142716 -123.38500021 246.82249984 -126.5 244.375 C-126.5 243.715 -126.5 243.055 -126.5 242.375 C-128.48 242.045 -130.46 241.715 -132.5 241.375 C-133.64807811 237.2288727 -133.72576239 233.16822882 -133.81640625 228.890625 C-133.83718735 228.07503113 -133.85796844 227.25943726 -133.87937927 226.41912842 C-133.94461297 223.82116895 -134.00363768 221.22311087 -134.0625 218.625 C-134.10571014 216.860667 -134.14932522 215.09634387 -134.19335938 213.33203125 C-134.30026745 209.01312116 -134.40160827 204.69411216 -134.5 200.375 C-135.56855225 200.09124512 -136.63710449 199.80749023 -137.73803711 199.51513672 C-140.76073888 198.5990476 -143.02314847 197.73626308 -145.69140625 196.1328125 C-146.40876953 195.70613281 -147.12613281 195.27945313 -147.86523438 194.83984375 C-148.59033203 194.39769531 -149.31542969 193.95554688 -150.0625 193.5 C-151.15594727 192.84837891 -151.15594727 192.84837891 -152.27148438 192.18359375 C-154.35925959 190.93205613 -156.4298142 189.65534765 -158.5 188.375 C-159.10312012 188.02147461 -159.70624023 187.66794922 -160.32763672 187.30371094 C-164.30240065 184.8783107 -164.30240065 184.8783107 -165.15014648 182.71899414 C-165.63667946 179.45925712 -165.64252019 176.22890664 -165.6328125 172.94140625 C-165.63376923 172.22645493 -165.63472595 171.5115036 -165.63571167 170.77488708 C-165.63639064 169.26618359 -165.63455611 167.75747714 -165.63037109 166.2487793 C-165.6250267 163.94898862 -165.63032157 161.64939394 -165.63671875 159.34960938 C-165.63605776 157.88020791 -165.63477618 156.41080656 -165.6328125 154.94140625 C-165.63483673 154.25792618 -165.63686096 153.57444611 -165.63894653 152.87025452 C-165.62497926 150.00163132 -165.49391322 147.34463118 -164.92919922 144.52709961 C-164.26354426 142.33665319 -164.26354426 142.33665319 -165.5 140.375 C-165.73478917 136.14701619 -165.7284097 131.91512203 -165.74023438 127.68139648 C-165.74991561 125.58081089 -165.78092684 123.48121425 -165.8125 121.38085938 C-165.81903286 120.0390683 -165.82428222 118.69727023 -165.828125 117.35546875 C-165.8374707 116.13754639 -165.84681641 114.91962402 -165.85644531 113.66479492 C-165.46978642 110.0961452 -164.66375599 108.21073195 -162.5 105.375 C-160.5 104.75 -160.5 104.75 -158.5 104.375 C-158.005 103.88 -157.51 103.385 -157 102.875 C-155.19851305 101.07351305 -153.92864387 100.98216097 -151.5 100.375 C-151.06558594 99.93542969 -150.63117188 99.49585937 -150.18359375 99.04296875 C-148.15327425 97.03149212 -146.00220061 95.6733327 -143.5625 94.1875 C-142.70785156 93.65769531 -141.85320312 93.12789063 -140.97265625 92.58203125 C-138.5 91.375 -138.5 91.375 -134.5 91.375 C-134.4906543 90.14869873 -134.48130859 88.92239746 -134.47167969 87.65893555 C-134.43183536 83.11315457 -134.36609244 78.56805438 -134.29248047 74.02270508 C-134.26423851 72.05469502 -134.24304006 70.08657085 -134.22900391 68.1184082 C-134.20761879 65.2905827 -134.1609926 62.46413385 -134.109375 59.63671875 C-134.10814636 58.75537766 -134.10691772 57.87403656 -134.10565186 56.96598816 C-133.95910997 50.86739838 -133.95910997 50.86739838 -131.59082031 48.32739258 C-129.5 47.375 -129.5 47.375 -127.4375 46.875 C-125.43981545 46.53938667 -125.43981545 46.53938667 -124.2421875 45.07421875 C-121.94580827 42.83447668 -119.43642835 41.33685701 -116.6875 39.6875 C-115.67042969 39.06488281 -114.65335938 38.44226562 -113.60546875 37.80078125 C-110.24844135 36.25950452 -108.13440923 36.26612326 -104.5 36.375 C-103.84 35.715 -103.18 35.055 -102.5 34.375 C-101.5 33.375 -100.5 32.375 -99.5 31.375 C-99.07066162 30.90723145 -98.64132324 30.43946289 -98.19897461 29.95751953 C-96.19688017 28.09265731 -94.12778658 26.85279563 -91.75390625 25.4921875 C-90.83416016 24.96496094 -89.91441406 24.43773438 -88.96679688 23.89453125 C-88.00837891 23.35183594 -87.04996094 22.80914063 -86.0625 22.25 C-85.10794922 21.69957031 -84.15339844 21.14914063 -83.16992188 20.58203125 C-82.24888672 20.05738281 -81.32785156 19.53273438 -80.37890625 18.9921875 C-79.5391626 18.51378418 -78.69941895 18.03538086 -77.83422852 17.54248047 C-73.69228366 15.47085822 -70.13555028 15.00339969 -65.5 15.375 C-62.6315918 16.62841797 -62.6315918 16.62841797 -59.69921875 18.3671875 C-58.64025391 18.98980469 -57.58128906 19.61242187 -56.49023438 20.25390625 C-54.85538086 21.24197266 -54.85538086 21.24197266 -53.1875 22.25 C-52.07826172 22.90097656 -50.96902344 23.55195313 -49.82617188 24.22265625 C-41.64694714 29.08110573 -41.64694714 29.08110573 -40.5 31.375 C-39.36820312 30.7253125 -38.23640625 30.075625 -37.0703125 29.40625 C-35.58866924 28.56227599 -34.10689142 27.71853819 -32.625 26.875 C-31.87863281 26.44574219 -31.13226563 26.01648438 -30.36328125 25.57421875 C-29.29013672 24.96513672 -29.29013672 24.96513672 -28.1953125 24.34375 C-27.53547363 23.96669922 -26.87563477 23.58964844 -26.19580078 23.20117188 C-24.5 22.375 -24.5 22.375 -22.5 22.375 C-22.5 20.065 -22.5 17.755 -22.5 15.375 C-21.84 15.375 -21.18 15.375 -20.5 15.375 C-20.190625 14.446875 -19.88125 13.51875 -19.5625 12.5625 C-18.875 10.5 -18.1875 8.4375 -17.5 6.375 C-16.51 6.045 -15.52 5.715 -14.5 5.375 C-14.17 4.385 -13.84 3.395 -13.5 2.375 C-9.26358554 -0.3902443 -4.88981821 0.00737529 0 0 Z M-2.5 19.375 C-1.5 21.375 -1.5 21.375 -1.5 21.375 Z M0.5 19.375 C1.5 22.375 1.5 22.375 1.5 22.375 Z M-14 39.5625 C-18.07399715 41.56119509 -18.07399715 41.56119509 -21.5 44.375 C-21.98517403 47.80264055 -21.98517403 47.80264055 -21.75 51.5625 C-21.71390625 52.83480469 -21.6778125 54.10710938 -21.640625 55.41796875 C-21.59421875 56.39378906 -21.5478125 57.36960937 -21.5 58.375 C-17.47768905 58.95628881 -13.97305955 59.31574224 -10.44482422 57.0625 C-8.49118366 55.24995851 -6.7058416 53.36847323 -4.9375 51.375 C-4.31037109 50.70726562 -3.68324219 50.03953125 -3.03710938 49.3515625 C-1.50224822 47.71125287 0.00765953 46.0539229 1.5 44.375 C1.17 43.715 0.84 43.055 0.5 42.375 C-1.82315031 41.6736716 -4.15789079 41.01014826 -6.5 40.375 C-7.16 39.941875 -7.82 39.50875 -8.5 39.0625 C-10.74874864 38.06150301 -10.74874864 38.06150301 -14 39.5625 Z M-5.5 40.375 C-5.5 40.705 -5.5 41.035 -5.5 41.375 C-2.2 41.375 1.1 41.375 4.5 41.375 C4.5 41.045 4.5 40.715 4.5 40.375 C1.2 40.375 -2.1 40.375 -5.5 40.375 Z M-23.5 42.375 C-23.5 48.975 -23.5 55.575 -23.5 62.375 C-23.17 62.375 -22.84 62.375 -22.5 62.375 C-22.17 55.775 -21.84 49.175 -21.5 42.375 C-22.16 42.375 -22.82 42.375 -23.5 42.375 Z M2.5 42.375 C2.5 42.705 2.5 43.035 2.5 43.375 C6.79 43.375 11.08 43.375 15.5 43.375 C15.5 43.045 15.5 42.715 15.5 42.375 C11.21 42.375 6.92 42.375 2.5 42.375 Z M33.5 49.375 C34.5 52.375 34.5 52.375 34.5 52.375 Z M36.5 49.375 C37.5 52.375 37.5 52.375 37.5 52.375 Z M-19.5 58.375 C-15.5 59.375 -15.5 59.375 -15.5 59.375 Z M10.5 59.375 C10.5 59.705 10.5 60.035 10.5 60.375 C12.15 60.375 13.8 60.375 15.5 60.375 C15.5 60.045 15.5 59.715 15.5 59.375 C13.85 59.375 12.2 59.375 10.5 59.375 Z M-23.5 73.375 C-23.5 82.615 -23.5 91.855 -23.5 101.375 C-21.24384974 99.54608623 -21.24384974 99.54608623 -21.27294922 96.85302734 C-21.28342285 95.8161377 -21.29389648 94.77924805 -21.3046875 93.7109375 C-21.31113281 92.58945313 -21.31757813 91.46796875 -21.32421875 90.3125 C-21.34097656 89.136875 -21.35773438 87.96125 -21.375 86.75 C-21.38853516 84.97496094 -21.38853516 84.97496094 -21.40234375 83.1640625 C-21.42597188 80.23417477 -21.45891486 77.3046866 -21.5 74.375 C-22.16 74.045 -22.82 73.715 -23.5 73.375 Z M16.5 80.375 C16.5 80.705 16.5 81.035 16.5 81.375 C32.67 81.375 48.84 81.375 65.5 81.375 C65.5 81.045 65.5 80.715 65.5 80.375 C49.33 80.375 33.16 80.375 16.5 80.375 Z M24.5 97.375 C24.5 97.705 24.5 98.035 24.5 98.375 C35.39 98.375 46.28 98.375 57.5 98.375 C57.5 98.045 57.5 97.715 57.5 97.375 C46.61 97.375 35.72 97.375 24.5 97.375 Z M-21.5 98.375 C-21.5 98.705 -21.5 99.035 -21.5 99.375 C-15.89 99.375 -10.28 99.375 -4.5 99.375 C-4.5 99.045 -4.5 98.715 -4.5 98.375 C-10.11 98.375 -15.72 98.375 -21.5 98.375 Z M16.5 102.375 C17.5 104.375 17.5 104.375 17.5 104.375 Z M-23.5 112.375 C-23.5 121.615 -23.5 130.855 -23.5 140.375 C-23.17 140.375 -22.84 140.375 -22.5 140.375 C-22.5 131.135 -22.5 121.895 -22.5 112.375 C-22.83 112.375 -23.16 112.375 -23.5 112.375 Z M93.5 117.375 C94.5 121.375 94.5 121.375 94.5 121.375 Z M90.5 118.375 C91.5 120.375 91.5 120.375 91.5 120.375 Z M47.5 143.375 C48.5 147.375 48.5 147.375 48.5 147.375 Z M50.5 144.375 C51.5 146.375 51.5 146.375 51.5 146.375 Z M-23.5 150.375 C-23.5 159.615 -23.5 168.855 -23.5 178.375 C-23.17 178.375 -22.84 178.375 -22.5 178.375 C-22.5 169.135 -22.5 159.895 -22.5 150.375 C-22.83 150.375 -23.16 150.375 -23.5 150.375 Z M-20.5 153.375 C-20.5 153.705 -20.5 154.035 -20.5 154.375 C-4.33 154.375 11.84 154.375 28.5 154.375 C28.5 154.045 28.5 153.715 28.5 153.375 C12.33 153.375 -3.84 153.375 -20.5 153.375 Z M-40.5 157.375 C-40.83 158.365 -41.16 159.355 -41.5 160.375 C-40.51 160.87 -40.51 160.87 -39.5 161.375 C-39.83 160.055 -40.16 158.735 -40.5 157.375 Z M93.5 169.375 C94.5 173.375 94.5 173.375 94.5 173.375 Z M90.5 170.375 C91.5 172.375 91.5 172.375 91.5 172.375 Z M-105.5 180.375 C-105.17 181.365 -104.84 182.355 -104.5 183.375 C-104.5 182.385 -104.5 181.395 -104.5 180.375 C-104.83 180.375 -105.16 180.375 -105.5 180.375 Z M-23.5 189.375 C-23.5 198.615 -23.5 207.855 -23.5 217.375 C-21.21591319 215.53732681 -21.21591319 215.53732681 -21.36474609 212.76123047 C-21.41711426 211.68244629 -21.46948242 210.60366211 -21.5234375 209.4921875 C-21.575 208.32558594 -21.6265625 207.15898437 -21.6796875 205.95703125 C-21.74414062 204.73371094 -21.80859375 203.51039063 -21.875 202.25 C-21.93171875 201.01894531 -21.9884375 199.78789062 -22.046875 198.51953125 C-22.18867683 195.47079194 -22.34011973 192.42283612 -22.5 189.375 C-22.83 189.375 -23.16 189.375 -23.5 189.375 Z M21.5 192.375 C21.5 192.705 21.5 193.035 21.5 193.375 C33.38 193.375 45.26 193.375 57.5 193.375 C57.5 193.045 57.5 192.715 57.5 192.375 C45.62 192.375 33.74 192.375 21.5 192.375 Z M16.5 209.375 C16.5 209.705 16.5 210.035 16.5 210.375 C32.67 210.375 48.84 210.375 65.5 210.375 C65.5 210.045 65.5 209.715 65.5 209.375 C49.33 209.375 33.16 209.375 16.5 209.375 Z M32.5 218.375 C32.5 218.705 32.5 219.035 32.5 219.375 C34.48 219.375 36.46 219.375 38.5 219.375 C38.5 219.045 38.5 218.715 38.5 218.375 C36.52 218.375 34.54 218.375 32.5 218.375 Z M-23.5 228.375 C-23.5 234.975 -23.5 241.575 -23.5 248.375 C-23.17 248.375 -22.84 248.375 -22.5 248.375 C-22.5 241.775 -22.5 235.175 -22.5 228.375 C-22.83 228.375 -23.16 228.375 -23.5 228.375 Z M10.5 230.375 C10.5 230.705 10.5 231.035 10.5 231.375 C12.15 231.375 13.8 231.375 15.5 231.375 C15.5 231.045 15.5 230.715 15.5 230.375 C13.85 230.375 12.2 230.375 10.5 230.375 Z M-19.5 231.375 C-15.5 232.375 -15.5 232.375 -15.5 232.375 Z M-21.5 232.375 C-22.71631853 240.9711261 -22.71631853 240.9711261 -19.7421875 248.67578125 C-16.09749283 251.26413221 -13.5635014 252.39433639 -9.0625 252.3125 C-7.2990625 251.8484375 -7.2990625 251.8484375 -5.5 251.375 C-3.69030831 251.1620951 -1.87735539 250.97563307 -0.0625 250.8125 C0.80246094 250.72871094 1.66742188 250.64492187 2.55859375 250.55859375 C3.19925781 250.49800781 3.83992188 250.43742187 4.5 250.375 C3.18 249.715 1.86 249.055 0.5 248.375 C0.5 247.385 0.5 246.395 0.5 245.375 C-1.1951858 242.89978449 -3.34787357 240.83291178 -5.4375 238.6875 C-5.98212891 238.08099609 -6.52675781 237.47449219 -7.08789062 236.84960938 C-9.59090221 234.27715007 -11.33091894 232.56258426 -14.94970703 231.98193359 C-17.17038822 231.98062808 -19.29889142 232.09107667 -21.5 232.375 Z M33.5 238.375 C34.5 241.375 34.5 241.375 34.5 241.375 Z M36.5 238.375 C37.5 241.375 37.5 241.375 37.5 241.375 Z M-107.5 253.375 C-103.5 254.375 -103.5 254.375 -103.5 254.375 Z M-39.5 256.375 C-38.5 258.375 -38.5 258.375 -38.5 258.375 Z M0.5 268.375 C1.5 271.375 1.5 271.375 1.5 271.375 Z M-2.5 269.375 C-1.5 271.375 -1.5 271.375 -1.5 271.375 Z " fill="#050807" transform="translate(179.5,4.625)"/>
<path d="M0 0 C0.86896219 0.39914958 1.73792439 0.79829916 2.63321877 1.20954418 C3.47573 1.53531035 4.31824123 1.86107653 5.18628311 2.1967144 C22.38318554 9.22493921 22.38318554 9.22493921 25.8765583 16.96397305 C27.75911169 25.04180601 27.15723751 33.28929219 26.78165627 41.51032543 C26.74056174 44.16016314 26.70819805 46.80868757 26.68732643 49.4586134 C26.61931834 55.69198763 26.43940696 61.9167273 26.21763766 68.14632052 C25.97047568 75.24562086 25.85047847 82.34536711 25.74033809 89.44790804 C25.51125402 104.03954706 25.12510767 118.62442522 24.63321877 133.20954418 C20.78968782 131.71013378 17.27271764 129.98054355 13.67618752 127.95173168 C12.56437111 127.32653637 11.4525547 126.70134106 10.30704689 126.05720043 C9.14489976 125.39971508 7.98279086 124.74216215 6.82071877 124.08454418 C5.63923688 123.41889777 4.45759776 122.75353034 3.27579689 122.08845043 C0.39337971 120.46488484 -2.48740454 118.83849404 -5.36678123 117.20954418 C-5.27797545 120.13726418 -5.18370625 122.43667083 -4.36678123 125.20954418 C-1.72393671 127.73127626 -1.72393671 127.73127626 1.82071877 129.45563793 C2.4384214 129.7970834 3.05612404 130.13852886 3.69254494 130.49032116 C5.65929082 131.56994156 7.64447233 132.60861036 9.63321877 133.64704418 C10.97059735 134.37029723 12.30655543 135.09618355 13.64103127 135.82477856 C16.07437769 137.15165851 18.51482607 138.45846846 20.96525002 139.75422192 C23.63321877 141.20954418 23.63321877 141.20954418 24.63321877 142.20954418 C24.7763706 145.03792249 24.85434061 147.84268752 24.88956642 150.67316723 C24.90416908 151.56100399 24.91877174 152.44884075 24.93381691 153.36358166 C25.05990861 161.5640489 25.12857122 169.76549977 25.1816597 177.96673393 C25.21743719 183.4802734 25.27076672 188.99235572 25.36710548 194.50519848 C25.45988433 199.82979975 25.50857412 205.15311081 25.52605247 210.47847462 C25.54015674 212.50838708 25.56981926 214.53825352 25.61535454 216.5677042 C25.9551129 232.48936181 25.9551129 232.48936181 22.70412636 236.71987438 C20.3775299 238.28730657 18.25313602 239.23774824 15.63321877 240.20954418 C14.31183476 241.10623296 13.01120195 242.03532005 11.74650002 243.01032543 C2.02878291 249.65192158 2.02878291 249.65192158 -3.98396873 248.54157543 C-7.42928123 246.83454418 -7.42928123 246.83454418 -10.62117577 244.63825512 C-13.10628007 242.94700185 -15.52230598 241.63952834 -18.29256248 240.47687817 C-28.26909926 236.03897685 -28.26909926 236.03897685 -30.15386009 231.18073559 C-31.24648858 225.35590249 -30.73460754 219.51842707 -30.30428123 213.64704418 C-30.2289452 211.85761074 -30.16052021 210.06787221 -30.09920311 208.27790356 C-29.9347425 203.91418966 -29.67669941 199.56524542 -29.36678123 195.20954418 C-30.15053123 194.90016918 -30.93428123 194.59079418 -31.74178123 194.27204418 C-34.36678123 193.20954418 -34.36678123 193.20954418 -36.36678123 192.20954418 C-36.36678123 204.08954418 -36.36678123 215.96954418 -36.36678123 228.20954418 C-39.87055656 226.80803405 -42.7690094 225.50833276 -45.97615623 223.64313793 C-46.8127578 223.1578059 -47.64935936 222.67247387 -48.51131248 222.17243481 C-49.37111717 221.6690559 -50.23092186 221.16567699 -51.11678123 220.64704418 C-51.99205467 220.13979809 -52.86732811 219.63255199 -53.76912498 219.10993481 C-60.22454735 215.35177806 -60.22454735 215.35177806 -61.36678123 214.20954418 C-63.08162778 204.0788236 -64.97407401 191.1034134 -61.36678123 181.20954418 C-54.96838836 172.96410716 -44.19031879 169.05464747 -34.37825584 166.40143871 C-30.49544849 166.15402188 -28.69496861 167.19808385 -25.34724998 169.13923168 C-24.24316795 169.76958324 -23.13908592 170.39993481 -22.00154686 171.04938793 C-20.85232968 171.72755541 -19.70324261 172.40594342 -18.55428123 173.08454418 C-17.38651607 173.75660429 -16.21790304 174.42719341 -15.04842186 175.09626293 C-6.61996691 179.9563585 -6.61996691 179.9563585 -5.36678123 181.20954418 C-5.27819478 183.94848503 -5.25154645 186.66207688 -5.26912498 189.40095043 C-5.27053993 190.22078915 -5.27195488 191.04062786 -5.2734127 191.88531017 C-5.27902834 194.51425801 -5.29158344 197.14312192 -5.30428123 199.77204418 C-5.30929422 201.55003775 -5.31385748 203.32803264 -5.31795311 205.10602856 C-5.32900285 209.47389963 -5.34627792 213.84170766 -5.36678123 218.20954418 C-4.41803123 218.51891918 -3.46928123 218.82829418 -2.49178123 219.14704418 C0.63321877 220.20954418 0.63321877 220.20954418 2.63321877 221.20954418 C5.64972038 196.7556419 5.64972038 196.7556419 -0.48103905 173.97712231 C-6.12011524 169.09774642 -12.86287213 166.81192286 -19.86287498 164.4981184 C-25.64988077 162.36992606 -30.70165591 159.12571051 -35.92928123 155.89704418 C-37.89608385 154.73657127 -39.86605779 153.58145344 -41.83943748 152.43220043 C-42.76901268 151.88837719 -43.69858788 151.34455395 -44.65633202 150.78425121 C-50.85116433 147.18519983 -57.10496166 143.69037918 -63.36678123 140.20954418 C-63.51193241 143.466595 -63.56060679 145.24774812 -62.36678123 148.20954418 C-59.17557203 150.98675457 -55.56076464 152.79839364 -51.80428123 154.70954418 C-50.30864647 155.51391918 -50.30864647 155.51391918 -48.78279686 156.33454418 C-46.32326834 157.65256903 -43.85273748 158.94228108 -41.36678123 160.20954418 C-41.36678123 160.86954418 -41.36678123 161.52954418 -41.36678123 162.20954418 C-43.97705581 163.63333032 -46.58793361 165.05576556 -49.20271873 166.47126293 C-51.28464046 167.61503474 -53.35305121 168.78381192 -55.40584373 169.97907543 C-56.36232811 170.52950512 -57.31881248 171.07993481 -58.30428123 171.64704418 C-59.61719139 172.41854809 -59.61719139 172.41854809 -60.95662498 173.20563793 C-63.84379629 174.40823603 -64.4651449 174.20521311 -67.36678123 173.20954418 C-69.34458271 172.20325425 -71.29522535 171.14292532 -73.22615623 170.04938793 C-74.23130272 169.48340893 -75.2364492 168.91742992 -76.27205467 168.33430004 C-77.54081444 167.61250561 -78.8095742 166.89071117 -80.11678123 166.14704418 C-86.18053123 162.71298168 -86.18053123 162.71298168 -92.36678123 159.20954418 C-92.36678123 148.31954418 -92.36678123 137.42954418 -92.36678123 126.20954418 C-81.30428123 119.95954418 -81.30428123 119.95954418 -77.85872459 118.01325512 C-75.93376442 116.92546224 -74.01340049 115.82951098 -72.0967617 114.72712231 C-69.36678123 113.20954418 -69.36678123 113.20954418 -67.09383202 112.17634106 C-64.93684859 111.2501709 -64.93684859 111.2501709 -62.36678123 109.20954418 C-61.47829033 106.40834391 -61.41653892 104.19500506 -61.36678123 101.20954418 C-64.88825996 103.12502679 -68.40884606 105.04214441 -71.92928123 106.95954418 C-72.91992577 107.49837231 -73.9105703 108.03720043 -74.93123436 108.59235668 C-79.13517114 110.88287373 -83.32958391 113.17337915 -87.45662498 115.60016918 C-90.36678123 117.20954418 -90.36678123 117.20954418 -92.36678123 117.20954418 C-92.36678123 108.29954418 -92.36678123 99.38954418 -92.36678123 90.20954418 C-88.78202817 88.03874864 -85.19410134 85.88005254 -81.58797264 83.74592113 C-80.36430861 83.01758051 -79.144184 82.28325787 -77.92781639 81.54279613 C-76.17435077 80.47680947 -74.40910294 79.43328671 -72.64021873 78.39313793 C-71.58238182 77.75948315 -70.52454491 77.12582836 -69.43465233 76.47297192 C-65.80523416 74.97828474 -64.09793957 75.12339861 -60.36678123 76.20954418 C-58.236166 77.17756176 -58.236166 77.17756176 -56.30818748 78.35407543 C-55.59211327 78.78397778 -54.87603905 79.21388012 -54.13826561 79.65680981 C-53.40930077 80.10733715 -52.68033592 80.55786449 -51.92928123 81.02204418 C-50.47246222 81.90390529 -49.01543323 82.78541965 -47.55818748 83.66657543 C-46.60214622 84.25402538 -46.60214622 84.25402538 -45.626791 84.85334301 C-43.4925358 86.20335069 -43.4925358 86.20335069 -41.57864952 86.97581005 C-39.59057701 87.89832784 -38.01268645 88.7575862 -36.36678123 90.20954418 C-35.63580261 93.23331146 -35.40653978 95.23084994 -35.46443748 98.25641918 C-35.45214607 99.02762096 -35.43985466 99.79882275 -35.42719078 100.59339428 C-35.39546811 103.04974667 -35.41173176 105.50309822 -35.42928123 107.95954418 C-35.41617162 109.62754082 -35.39993144 111.295516 -35.38045311 112.96345043 C-35.33960568 117.04612172 -35.34177818 121.12676653 -35.36678123 125.20954418 C-32.39678123 124.21954418 -32.39678123 124.21954418 -29.36678123 123.20954418 C-29.36678123 112.31954418 -29.36678123 101.42954418 -29.36678123 90.20954418 C-16.67928123 82.89704418 -16.67928123 82.89704418 -12.70393944 80.60676098 C-11.13905785 79.70437695 -11.13905785 79.70437695 -9.54256248 78.78376293 C-8.47948875 78.17105541 -7.41641502 77.55834789 -6.32112694 76.92707348 C-5.34619286 76.36028881 -4.37125877 75.79350414 -3.36678123 75.20954418 C-2.42898827 74.81831371 -1.4911953 74.42708324 -0.52498436 74.02399731 C2.0491053 72.25595599 2.0491053 72.25595599 2.29264259 68.38068676 C2.33375291 66.78893469 2.34792644 65.19633978 2.34025002 63.60407543 C2.36293198 62.34526814 2.36293198 62.34526814 2.38607216 61.06103039 C2.42905423 58.38109725 2.43779686 55.7022881 2.44571877 53.02204418 C2.46885504 51.20495679 2.49421856 49.38789629 2.52189064 47.57087231 C2.58484634 43.11699646 2.61709953 38.66382588 2.63321877 34.20954418 C1.68446877 34.70454418 0.73571877 35.19954418 -0.24178123 35.70954418 C-3.36678123 37.20954418 -3.36678123 37.20954418 -5.36678123 37.20954418 C-5.27775536 38.09625805 -5.18872948 38.98297192 -5.09700584 39.8965559 C-2.95061919 64.3970082 -2.95061919 64.3970082 -6.85799217 70.56257153 C-10.65702335 73.99103668 -15.07332655 75.7480737 -19.91170311 77.25324535 C-22.82843529 78.38936707 -25.10866885 80.04508939 -27.69881248 81.79548168 C-31.07234038 83.6841272 -32.50949014 84.40986044 -36.314291 83.52082348 C-39.4690068 81.97252048 -42.32087461 80.22506508 -45.24178123 78.27204418 C-46.24724998 77.65007153 -47.25271873 77.02809887 -48.28865623 76.38727856 C-50.1594297 75.22486825 -52.01893988 74.0439725 -53.8623867 72.83869457 C-56.33511902 71.13149124 -56.33511902 71.13149124 -59.15706444 69.99714184 C-61.36678123 68.20954418 -61.36678123 68.20954418 -61.93440819 64.65607738 C-61.93361811 63.19058826 -61.90545145 61.72494823 -61.85506248 60.26032543 C-61.84798775 59.4877087 -61.84091301 58.71509197 -61.83362389 57.91906261 C-61.80564379 55.45240276 -61.74290531 52.98801714 -61.67928123 50.52204418 C-61.65420273 48.84955094 -61.63138877 47.17702209 -61.61092186 45.50446606 C-61.55580614 41.40528309 -61.4695142 37.30779911 -61.36678123 33.20954418 C-57.57903429 31.03596975 -53.78596094 28.87186698 -49.99178123 26.70954418 C-48.91154686 26.08950512 -47.83131248 25.46946606 -46.71834373 24.83063793 C-45.68709373 24.24411449 -44.65584373 23.65759106 -43.59334373 23.05329418 C-42.64024315 22.50866528 -41.68714256 21.96403637 -40.70516014 21.40290356 C-38.36678123 20.20954418 -38.36678123 20.20954418 -36.36678123 20.20954418 C-36.03678123 30.10954418 -35.70678123 40.00954418 -35.36678123 50.20954418 C-33.38678123 49.54954418 -31.40678123 48.88954418 -29.36678123 48.20954418 C-29.46889915 46.77288403 -29.46889915 46.77288403 -29.57308006 45.30720043 C-29.80996656 41.72305909 -29.9581125 38.13958735 -30.08089256 34.54987621 C-30.14593271 33.00279214 -30.2344193 31.4564974 -30.34749413 29.9121809 C-30.71562314 24.7517117 -30.76714739 20.22320889 -29.36678123 15.20954418 C-25.52983316 11.37677806 -21.28530503 9.38628319 -16.36678123 7.20954418 C-14.96393623 6.37084317 -13.5741564 5.50904767 -12.21053123 4.60798168 C-11.10709373 3.94024731 -10.00365623 3.27251293 -8.86678123 2.58454418 C-8.01599998 2.04120434 -8.01599998 2.04120434 -7.14803123 1.48688793 C-2.97725108 -0.99434008 -2.97725108 -0.99434008 0 0 Z " fill="#FCFCFC" transform="translate(111.36678123474121,25.79045581817627)"/>
<path d="M0 0 C3.52352802 1.97344884 5.84236195 3.68744599 7.8125 7.3125 C9.1333905 12.31116403 9.42806776 16.80713433 7.375 21.625 C4.82088744 25.93725168 1.48238705 28.53662746 -3.1875 30.3125 C-8.95965731 31.31300727 -12.26021611 30.3754062 -17.1875 27.3125 C-20.02800318 27.09967711 -20.02800318 27.09967711 -23.1875 28.3125 C-24.00295477 28.54831598 -24.81840954 28.78413197 -25.65857506 29.02709389 C-28.96870272 30.39884704 -30.82470491 31.58863752 -33.1875 34.3125 C-35.18514922 40.62310292 -34.44658478 47.7428801 -34.32275391 54.27099609 C-34.31993257 56.34081892 -34.32151767 58.41065175 -34.32717896 60.48046875 C-34.33004892 66.09651384 -34.27125028 71.71042426 -34.20143938 77.32597303 C-34.13893572 83.19552766 -34.13305291 89.06513098 -34.1211853 94.93496704 C-34.09010091 106.04876993 -34.00803591 117.16158942 -33.90769041 128.27495921 C-33.79592514 140.92768099 -33.74093628 153.58044969 -33.69073606 166.2335422 C-33.58620327 192.26040673 -33.41030576 218.28639828 -33.1875 244.3125 C-30.95657666 245.69621592 -28.71617547 247.05648709 -26.46484375 248.40625 C-25.51901428 248.99744629 -25.51901428 248.99744629 -24.55407715 249.60058594 C-20.83930131 251.8583429 -20.83930131 251.8583429 -16.62890625 251.88867188 C-14.71693392 250.83487043 -14.71693392 250.83487043 -12.91015625 249.5 C-9.97982277 247.47999688 -7.60903963 247.82370862 -4.1875 248.3125 C0.94327838 250.11938429 5.15431218 252.42143441 7.8125 257.3125 C9.40271459 263.33037091 9.28222625 268.19461113 6.125 273.62109375 C3.36832954 277.17358872 -0.00462035 278.91820678 -4.1875 280.3125 C-9.63635201 280.95354141 -12.97507901 279.96360843 -17.390625 276.92578125 C-20.40863075 274.21613696 -22.0521328 271.18044589 -23.1875 267.3125 C-23.20941406 266.01828125 -23.23132813 264.7240625 -23.25390625 263.390625 C-23.5556424 260.68881485 -23.84476624 259.63681972 -25.84155273 257.74731445 C-28.06994059 256.31381119 -30.32542994 255.07511476 -32.6875 253.875 C-34.26055857 253.02239717 -35.83348248 252.16954585 -37.40625 251.31640625 C-38.10685547 250.95361572 -38.80746094 250.5908252 -39.52929688 250.21704102 C-41.1875 249.3125 -41.1875 249.3125 -42.1875 248.3125 C-42.30538533 245.51955024 -42.35760056 242.75065109 -42.36831665 239.95649719 C-42.37552117 239.06966175 -42.38272568 238.1828263 -42.39014852 237.26911706 C-42.41301469 234.27358122 -42.42848687 231.2780538 -42.44384766 228.2824707 C-42.45828761 226.14430025 -42.47304512 224.00613192 -42.48809814 221.8679657 C-42.61845874 202.33569668 -42.68423913 182.80284873 -42.73594093 163.27023029 C-42.77487437 148.82276245 -42.84325844 134.3760728 -42.95048869 119.92894679 C-43.02327688 109.78115858 -43.06176565 99.63358355 -43.07496679 89.48554486 C-43.0838446 83.41962311 -43.10820134 77.35466251 -43.16963577 71.28902626 C-43.22678232 65.58173468 -43.24158263 59.87590215 -43.22376251 54.16836739 C-43.22464263 52.07288351 -43.24096379 49.97734106 -43.27380753 47.88211441 C-43.50965065 32.01386987 -43.50965065 32.01386987 -40.21184921 27.7701931 C-37.88925208 26.18851274 -35.83671072 25.21373321 -33.1875 24.3125 C-32.27097656 23.75820313 -31.35445312 23.20390625 -30.41015625 22.6328125 C-29.69730469 22.23835938 -28.98445312 21.84390625 -28.25 21.4375 C-27.51910156 21.02757813 -26.78820312 20.61765625 -26.03515625 20.1953125 C-24.1875 19.3125 -24.1875 19.3125 -22.1875 19.3125 C-22.23390625 18.58804687 -22.2803125 17.86359375 -22.328125 17.1171875 C-22.50099336 12.48678496 -22.56545904 9.14400989 -20.625 4.875 C-14.6192349 -1.43875305 -8.34460114 -3.78597644 0 0 Z M-9.1875 13.3125 C-8.1875 15.3125 -8.1875 15.3125 -8.1875 15.3125 Z M-6.1875 13.3125 C-5.1875 16.3125 -5.1875 16.3125 -5.1875 16.3125 Z M-6.1875 262.3125 C-5.1875 265.3125 -5.1875 265.3125 -5.1875 265.3125 Z M-9.1875 263.3125 C-8.1875 265.3125 -8.1875 265.3125 -8.1875 265.3125 Z " fill="#1EBF90" transform="translate(186.1875,10.6875)"/>
<path d="M0 0 C5.08908399 2.23727655 8.7714402 5.13631854 10.9453125 10.34765625 C11.89716464 14.80174296 11.84165586 18.53661438 9.80078125 22.66015625 C6.85919793 26.8823761 3.94190736 29.74874589 -1.0546875 31.34765625 C-4.70184025 31.7217232 -8.0869626 31.63139143 -11.63183594 30.59204102 C-12.43137695 30.51139404 -13.23091797 30.43074707 -14.0546875 30.34765625 C-15.62721744 31.89724358 -15.62721744 31.89724358 -16.7578125 34.1875 C-21.33012841 41.062231 -26.30645483 47.01829761 -34.63635254 48.94470215 C-42.04448665 50.07516315 -49.44964189 50.17279285 -56.9296875 50.16015625 C-58.56363464 50.18261917 -58.56363464 50.18261917 -60.23059082 50.20553589 C-80.8065495 50.34926586 -80.8065495 50.34926586 -88.5625 42.859375 C-93.0546875 38.18225498 -93.0546875 38.18225498 -93.0546875 35.34765625 C-94.3746875 34.68765625 -95.6946875 34.02765625 -97.0546875 33.34765625 C-97.0546875 32.68765625 -97.0546875 32.02765625 -97.0546875 31.34765625 C-103.6546875 31.34765625 -110.2546875 31.34765625 -117.0546875 31.34765625 C-117.0546875 29.03765625 -117.0546875 26.72765625 -117.0546875 24.34765625 C-109.4970881 23.31454592 -101.50496021 22.35303434 -94.0546875 24.34765625 C-91.20545252 26.60403145 -89.33039444 29.39571408 -87.2421875 32.34765625 C-82.71130201 38.27504755 -78.270589 40.71789185 -70.97654724 41.71168518 C-57.11754054 43.05943775 -38.85987991 44.59256615 -27.41186523 35.34960938 C-23.15186831 30.91279031 -19.99593915 26.47517367 -19.40234375 20.2265625 C-19.42861393 16.36869883 -19.42861393 16.36869883 -19.94140625 12.6484375 C-20.07679611 8.70345697 -19.36637136 7.46656767 -16.8046875 4.53515625 C-11.85858542 -0.25241691 -6.85390128 -2.17604851 0 0 Z M-4.0546875 13.34765625 C-3.0546875 17.34765625 -3.0546875 17.34765625 -3.0546875 17.34765625 Z M-7.0546875 14.34765625 C-6.0546875 16.34765625 -6.0546875 16.34765625 -6.0546875 16.34765625 Z " fill="#1FC493" transform="translate(277.0546875,160.65234375)"/>
<path d="M0 0 C1.09284302 0.01062469 2.18568604 0.02124939 3.31164551 0.03219604 C25.33973643 0.32285066 25.33973643 0.32285066 34.22900391 8.64697266 C36.87941928 11.78465438 39.20791163 14.98207632 41.18261719 18.58618164 C41.89659668 19.34789673 41.89659668 19.34789673 42.625 20.125 C45.18093484 19.96831439 45.18093484 19.96831439 47.625 19.125 C52.92939293 18.37267138 56.56348284 18.62605121 61 21.8125 C64.68845074 24.97927743 67.17208492 27.43085566 68.00390625 32.37890625 C68.43275993 38.35548412 67.24561916 41.965347 63.328125 46.49609375 C59.6571418 50.00710291 56.69465096 51.00614989 51.6875 51.5625 C47.2443402 51.35860739 44.01731283 49.98484854 40.625 47.125 C38.40760824 44.50961485 37.44219657 43.33345634 36.625 40.125 C36.85682503 37.97712713 37.10914335 35.83142652 37.375 33.6875 C37.39174826 25.90793404 34.61405215 20.77446223 29.26855469 15.17407227 C17.8336692 5.86751729 -0.41647637 7.41120334 -14.29685974 8.76095581 C-21.59089828 9.75479223 -26.03160644 12.19759815 -30.5625 18.125 C-31.09230469 18.87394531 -31.62210938 19.62289062 -32.16796875 20.39453125 C-36.13697778 25.79355089 -36.13697778 25.79355089 -40.20556641 26.8828125 C-46.96128853 27.52828342 -53.66404114 27.04237608 -60.375 26.125 C-60.375 23.815 -60.375 21.505 -60.375 19.125 C-59.116875 19.2384375 -57.85875 19.351875 -56.5625 19.46875 C-46.93443581 20.12196339 -46.93443581 20.12196339 -38.38031006 16.53485107 C-36.58049839 14.46439487 -34.89716752 12.32775328 -33.2109375 10.1640625 C-23.68565977 -0.53323809 -13.63229657 -0.46184481 0 0 Z M52.625 33.125 C53.625 37.125 53.625 37.125 53.625 37.125 Z M49.625 34.125 C50.625 36.125 50.625 36.125 50.625 36.125 Z " fill="#1FC594" transform="translate(220.375,88.875)"/>
<path d="M0 0 C3.8957689 2.18616935 5.98575793 4.1887161 7.8125 8.375 C8.55910539 13.52346634 8.61060221 18.55214542 6.3125 23.3125 C2.78985164 27.62774425 -0.77907914 29.75586737 -6.2734375 30.75390625 C-11.3977081 31.05822117 -14.33939135 29.61090954 -18.1875 26.375 C-22.1875 22.05921053 -22.1875 22.05921053 -22.1875 18.375 C-40.0075 18.375 -57.8275 18.375 -76.1875 18.375 C-76.1875 15.735 -76.1875 13.095 -76.1875 10.375 C-58.3675 10.375 -40.5475 10.375 -22.1875 10.375 C-21.8575 8.725 -21.5275 7.075 -21.1875 5.375 C-19.6640625 3.609375 -19.6640625 3.609375 -17.8125 2.125 C-16.90371094 1.37476563 -16.90371094 1.37476563 -15.9765625 0.609375 C-10.98495454 -2.83461652 -5.33100115 -2.39696134 0 0 Z M-9.1875 12.375 C-8.1875 16.375 -8.1875 16.375 -8.1875 16.375 Z M-6.1875 13.375 C-5.1875 15.375 -5.1875 15.375 -5.1875 15.375 Z " fill="#F3F3F3" transform="translate(236.1875,135.625)"/>
<path d="M0 0 C3.99034854 -1.11995229 7.00689514 -1.16848921 11 0 C13.70945012 2.23192825 15.98571523 4.81601734 18.3125 7.4375 C23.27051318 13.24998086 23.27051318 13.24998086 30.0703125 16.21875 C33.46641293 16.41085265 36.62648986 16.41064299 40 16 C40.27070313 15.06929687 40.54140625 14.13859375 40.8203125 13.1796875 C42.23007682 9.37985918 43.41479116 8.05782652 46.74609375 5.9296875 C51.45695235 3.98656038 56.05609791 3.96538208 61 5 C65.44303434 7.44891657 68.19431545 10.48531304 70.5625 14.9375 C71.33709489 20.35966426 70.84923926 24.3644281 68.3125 29.25 C65.17244438 32.9841202 62.57628876 35.58880082 57.6015625 36.3828125 C51.89708694 36.63977086 48.40995993 35.8849647 44 32 C40 27.68421053 40 27.68421053 40 24 C38.94683594 24.17402344 37.89367187 24.34804687 36.80859375 24.52734375 C31.13372516 25.16383945 25.72782936 25.7247789 20.72265625 22.56005859 C16.01389109 18.62874329 11.4942074 14.06217037 8 9 C8 8.34 8 7.68 8 7 C5.36 7 2.72 7 0 7 C0 4.69 0 2.38 0 0 Z M53 19 C54 22 54 22 54 22 Z M56 19 C57 22 57 22 57 22 Z " fill="#F5F5F5" transform="translate(160,224)"/>
<path d="M0 0 C4.31625628 2.2507211 7.30875943 4.96313914 10 9 C10.30078125 11.7421875 10.30078125 11.7421875 10.3125 14.875 C10.32925781 15.90367188 10.34601563 16.93234375 10.36328125 17.9921875 C9.79893896 22.6646989 7.9238385 25.18882473 4.4375 28.25 C-0.4810796 31.78128792 -5.07261288 31.60278513 -11 31 C-15.47883666 28.8405609 -17.91418379 26.51926845 -20 22 C-20 21.01 -20 20.02 -20 19 C-24.49495878 18.32267744 -28.78019694 18.18068992 -33 20 C-36.7666461 23.03327626 -39.94758842 26.62167167 -43.00195312 30.359375 C-47.68664645 35.77863603 -47.68664645 35.77863603 -51.94042969 36.49560547 C-54.67395601 36.49604283 -57.29128648 36.35497129 -60 36 C-60 33.69 -60 31.38 -60 29 C-57.36 29 -54.72 29 -52 29 C-51.78472656 28.47921875 -51.56945312 27.9584375 -51.34765625 27.421875 C-48.00209435 21.40956085 -42.9526971 15.51969531 -37 12 C-31.38545354 10.52407309 -25.67918498 11.20423396 -20 12 C-19.85884766 10.86304688 -19.85884766 10.86304688 -19.71484375 9.703125 C-18.8918222 6.59093422 -18.04855283 5.71403342 -15.5625 3.75 C-14.94503906 3.24984375 -14.32757813 2.7496875 -13.69140625 2.234375 C-9.48020325 -0.83892788 -5.04143851 -0.79369586 0 0 Z M-7 14 C-6 17 -6 17 -6 17 Z M-4 14 C-3 17 -3 17 -3 17 Z " fill="#F7F7F7" transform="translate(220,40)"/>
<path d="M0 0 C3.5625 0.3125 3.5625 0.3125 5.5 1.4375 C7.06672245 4.20230433 6.95226435 6.19438517 6.5625 9.3125 C5.5 11.1875 5.5 11.1875 3.5625 12.3125 C0.0625 12.75 0.0625 12.75 -3.4375 12.3125 C-5.4375 10.6875 -5.4375 10.6875 -6.4375 8.3125 C-6.12371717 3.0827861 -5.61102633 0.5100933 0 0 Z M-1.4375 4.3125 C-0.4375 8.3125 -0.4375 8.3125 -0.4375 8.3125 Z M1.5625 5.3125 C2.5625 7.3125 2.5625 7.3125 2.5625 7.3125 Z " fill="#0D0D0D" transform="translate(228.4375,143.6875)"/>
<path d="M0 0 C1.875 1.125 1.875 1.125 3 3 C3.54400387 6.65259739 3.43774093 8.3433886 1.375 11.4375 C-1 13 -1 13 -4.125 12.875 C-7 12 -7 12 -9 10 C-9.55021834 3.94759825 -9.55021834 3.94759825 -7.875 1.0625 C-5.11019567 -0.50422245 -3.11811483 -0.38976435 0 0 Z M-5 5 C-4 8 -4 8 -4 8 Z M-2 5 C-1 8 -1 8 -1 8 Z " fill="#0C0C0C" transform="translate(218,238)"/>
<path d="M0 0 C2.4375 1.625 2.4375 1.625 4 4 C3.85205998 7.6985004 3.64194427 9.35805573 1 12 C-5.05240175 12.55021834 -5.05240175 12.55021834 -7.9375 10.875 C-9.50422245 8.11019567 -9.38976435 6.11811483 -9 3 C-6.79244709 -0.67925486 -4.01747809 -0.57392544 0 0 Z M-2 4 C-1 8 -1 8 -1 8 Z M-5 5 C-4 7 -4 7 -4 7 Z " fill="#010A07" transform="translate(275,170)"/>
<path d="M0 0 C2 1.6875 2 1.6875 3 4 C2.7434556 7.50610679 1.9814066 9.0278901 0 12 C-3.42201828 12.37331109 -5.90185629 12.63763183 -8.9375 10.875 C-10.50422245 8.11019567 -10.38976435 6.11811483 -10 3 C-7.72375139 -1.01690931 -4.20725277 -0.5259066 0 0 Z M-3 4 C-2 8 -2 8 -2 8 Z M-6 5 C-5 7 -5 7 -5 7 Z " fill="#010A07" transform="translate(276,118)"/>
<path d="M0 0 C2.31361802 3.47042703 2.51020728 4.91834173 2 9 C-0.11689705 11.35210784 -1.44041515 11.91810953 -4.5625 12.375 C-7 12 -7 12 -8.8125 10.9375 C-10.69021039 7.87386726 -10.43729494 5.49835955 -10 2 C-7.01983499 -1.66789539 -4.31348256 -1.31279904 0 0 Z M-6 4 C-5 7 -5 7 -5 7 Z M-3 4 C-2 7 -2 7 -2 7 Z " fill="#0B0B0B" transform="translate(219,50)"/>
<path d="M0 0 C1.875 1.0625 1.875 1.0625 3 3 C3.3125 6.5625 3.3125 6.5625 3 10 C1 12 1 12 -2.4375 12.3125 C-6 12 -6 12 -7.9375 10.875 C-9.50422245 8.11019567 -9.38976435 6.11811483 -9 3 C-6.79086995 -0.68188342 -4.01844539 -0.50230567 0 0 Z M-5 5 C-4 7 -4 7 -4 7 Z M-2 5 C-1 8 -1 8 -1 8 Z " fill="#000605" transform="translate(182,19)"/>
<path d="M0 0 C2 2 2 2 2.3125 5.4375 C2 9 2 9 0.875 10.9375 C-1.88980433 12.50422245 -3.88188517 12.38976435 -7 12 C-8.875 10.875 -8.875 10.875 -10 9 C-10.38976435 5.88188517 -10.50422245 3.88980433 -8.9375 1.125 C-5.93267901 -0.61973477 -3.39189869 -0.30835443 0 0 Z M-3 4 C-2 7 -2 7 -2 7 Z M-6 5 C-5 7 -5 7 -5 7 Z " fill="#000504" transform="translate(183,269)"/>
<path d="M0 0 C0.33 0 0.66 0 1 0 C1 12.87 1 25.74 1 39 C0.34 38.67 -0.32 38.34 -1 38 C-0.67 25.46 -0.34 12.92 0 0 Z " fill="#000000" transform="translate(44,57)"/>
<path d="M0 0 C0.33 0 0.66 0 1 0 C1 12.21 1 24.42 1 37 C0.67 37 0.34 37 0 37 C0 24.79 0 12.58 0 0 Z " fill="#000000" transform="translate(44,205)"/>
<path d="M0 0 C0.33 0 0.66 0 1 0 C1 10.89 1 21.78 1 33 C0.67 33 0.34 33 0 33 C0 22.11 0 11.22 0 0 Z " fill="#000000" transform="translate(12,152)"/>
<path d="M0 0 C0.33 0 0.66 0 1 0 C1 9.9 1 19.8 1 30 C0.67 30 0.34 30 0 30 C0 20.1 0 10.2 0 0 Z " fill="#000000" transform="translate(12,115)"/>
<path d="M0 0 C0.33 0 0.66 0 1 0 C1 3.96 1 7.92 1 12 C0.67 12 0.34 12 0 12 C0 8.04 0 4.08 0 0 Z " fill="#000000" transform="translate(200,269)"/>
<path d="M0 0 C0.33 0 0.66 0 1 0 C1 3.96 1 7.92 1 12 C0.67 12 0.34 12 0 12 C0 8.04 0 4.08 0 0 Z " fill="#000000" transform="translate(293,170)"/>
<path d="M0 0 C0.33 0 0.66 0 1 0 C1 3.96 1 7.92 1 12 C0.67 12 0.34 12 0 12 C0 8.04 0 4.08 0 0 Z " fill="#000000" transform="translate(293,118)"/>
<path d="M0 0 C3.96 0 7.92 0 12 0 C12 0.33 12 0.66 12 1 C8.04 1 4.08 1 0 1 C0 0.67 0 0.34 0 0 Z " fill="#000000" transform="translate(209,34)"/>
<path d="M0 0 C0.33 0 0.66 0 1 0 C1 3.63 1 7.26 1 11 C0.67 11 0.34 11 0 11 C0 7.37 0 3.74 0 0 Z " fill="#000000" transform="translate(200,20)"/>
<path d="M0 0 C3.3 0 6.6 0 10 0 C10 0.33 10 0.66 10 1 C6.7 1 3.4 1 0 1 C0 0.67 0 0.34 0 0 Z " fill="#000000" transform="translate(174,296)"/>
<path d="M0 0 C3.3 0 6.6 0 10 0 C10 0.33 10 0.66 10 1 C6.7 1 3.4 1 0 1 C0 0.67 0 0.34 0 0 Z " fill="#000000" transform="translate(267,197)"/>
<path d="M0 0 C3.3 0 6.6 0 10 0 C10 0.33 10 0.66 10 1 C6.7 1 3.4 1 0 1 C0 0.67 0 0.34 0 0 Z " fill="#000000" transform="translate(267,145)"/>
<path d="M0 0 C3.3 0 6.6 0 10 0 C10 0.33 10 0.66 10 1 C6.7 1 3.4 1 0 1 C0 0.67 0 0.34 0 0 Z " fill="#000000" transform="translate(267,102)"/>
<path d="M0 0 C0.33 0 0.66 0 1 0 C1 2.97 1 5.94 1 9 C0.67 9 0.34 9 0 9 C0 6.03 0 3.06 0 0 Z " fill="#000000" transform="translate(236,240)"/>
<path d="M0 0 C1.98 0.99 1.98 0.99 4 2 C4 2.99 4 3.98 4 5 C2.68 3.35 1.36 1.7 0 0 Z " fill="#000000" transform="translate(185,180)"/>
<path d="M0 0 C2.97 0 5.94 0 9 0 C9 0.33 9 0.66 9 1 C6.03 1 3.06 1 0 1 C0 0.67 0 0.34 0 0 Z " fill="#000000" transform="translate(224,128)"/>
<path d="M0 0 C0.33 0 0.66 0 1 0 C1 2.97 1 5.94 1 9 C0.67 9 0.34 9 0 9 C0 6.03 0 3.06 0 0 Z " fill="#000000" transform="translate(236,51)"/>
<path d="M0 0 C0.33 0 0.66 0 1 0 C1 2.64 1 5.28 1 8 C0.67 8 0.34 8 0 8 C0 5.36 0 2.72 0 0 Z " fill="#000000" transform="translate(250,172)"/>
<path d="M0 0 C2.64 0 5.28 0 8 0 C8 0.33 8 0.66 8 1 C5.36 1 2.72 1 0 1 C0 0.67 0 0.34 0 0 Z " fill="#000000" transform="translate(268,154)"/>
<path d="M0 0 C0.33 0 0.66 0 1 0 C1 2.64 1 5.28 1 8 C0.67 8 0.34 8 0 8 C0 5.36 0 2.72 0 0 Z " fill="#000000" transform="translate(250,146)"/>
<path d="M0 0 C0.33 0 0.66 0 1 0 C1 2.64 1 5.28 1 8 C0.67 8 0.34 8 0 8 C0 5.36 0 2.72 0 0 Z " fill="#000000" transform="translate(250,120)"/>
<path d="M0 0 C2.64 0 5.28 0 8 0 C8 0.33 8 0.66 8 1 C5.36 1 2.72 1 0 1 C0 0.67 0 0.34 0 0 Z " fill="#000000" transform="translate(211,77)"/>
<path d="M0 0 C2.64 0 5.28 0 8 0 C8 0.33 8 0.66 8 1 C5.36 1 2.72 1 0 1 C0 0.67 0 0.34 0 0 Z " fill="#000000" transform="translate(175,3)"/>
<path d="M0 0 C1.98 0.99 1.98 0.99 4 2 C3.67 2.66 3.34 3.32 3 4 C2.01 2.68 1.02 1.36 0 0 Z " fill="#000000" transform="translate(227,227)"/>
<path d="M0 0 C0 0.99 0 1.98 0 3 C-0.99 3 -1.98 3 -3 3 C-2.01 2.01 -1.02 1.02 0 0 Z " fill="#000000" transform="translate(257,203)"/>
<path d="M0 0 C0 0.99 0 1.98 0 3 C-0.99 3 -1.98 3 -3 3 C-2.01 2.01 -1.02 1.02 0 0 Z " fill="#000000" transform="translate(230,69)"/>
<path d="M0 0 C1.65 0 3.3 0 5 0 C5 0.33 5 0.66 5 1 C3.35 1 1.7 1 0 1 C0 0.67 0 0.34 0 0 Z " fill="#000000" transform="translate(108,280)"/>
<path d="M0 0 C0.66 0.33 1.32 0.66 2 1 C0.68 1.33 -0.64 1.66 -2 2 C-1.34 1.34 -0.68 0.68 0 0 Z " fill="#000000" transform="translate(73,39)"/>
<path d="M0 0 C1 4 1 4 1 4 Z " fill="#000000" transform="translate(251,180)"/>
<path d="M0 0 C1 4 1 4 1 4 Z " fill="#000000" transform="translate(251,116)"/>
<path d="M0 0 C4 1 4 1 4 1 Z " fill="#000000" transform="translate(108,19)"/>
<path d="M0 0 C3 1 3 1 3 1 Z " fill="#000000" transform="translate(184,295)"/>
<path d="" fill="#000000" transform="translate(0,0)"/>
<path d="M0 0 C0.66 0.66 1.32 1.32 2 2 C1.34 2 0.68 2 0 2 C0 1.34 0 0.68 0 0 Z " fill="#000000" transform="translate(201,260)"/>
<path d="M0 0 C0.66 0.66 1.32 1.32 2 2 C1.34 2 0.68 2 0 2 C0 1.34 0 0.68 0 0 Z " fill="#000000" transform="translate(199,258)"/>
<path d="M0 0 C3 1 3 1 3 1 Z " fill="#000000" transform="translate(171,254)"/>
<path d="" fill="#000000" transform="translate(0,0)"/>
<path d="" fill="#000000" transform="translate(0,0)"/>
<path d="M0 0 C0.66 0 1.32 0 2 0 C1.67 0.66 1.34 1.32 1 2 C0.67 1.34 0.34 0.68 0 0 Z " fill="#000000" transform="translate(181,227)"/>
<path d="M0 0 C0.66 0 1.32 0 2 0 C1.67 0.66 1.34 1.32 1 2 C0.67 1.34 0.34 0.68 0 0 Z " fill="#000000" transform="translate(179,225)"/>
<path d="M0 0 C0.66 0 1.32 0 2 0 C1.67 0.66 1.34 1.32 1 2 C0.67 1.34 0.34 0.68 0 0 Z " fill="#000000" transform="translate(177,223)"/>
<path d="M0 0 C0.66 0 1.32 0 2 0 C1.67 0.66 1.34 1.32 1 2 C0.67 1.34 0.34 0.68 0 0 Z " fill="#000000" transform="translate(175,221)"/>
<path d="M0 0 C0.66 0 1.32 0 2 0 C1.67 0.66 1.34 1.32 1 2 C0.67 1.34 0.34 0.68 0 0 Z " fill="#000000" transform="translate(173,219)"/>
<path d="M0 0 C0.33 0.66 0.66 1.32 1 2 C0.34 1.67 -0.32 1.34 -1 1 C-0.67 0.67 -0.34 0.34 0 0 Z " fill="#000000" transform="translate(253,207)"/>
<path d="M0 0 C0.66 0.66 1.32 1.32 2 2 C1.34 2 0.68 2 0 2 C0 1.34 0 0.68 0 0 Z " fill="#000000" transform="translate(176,197)"/>
<path d="" fill="#000000" transform="translate(0,0)"/>
<path d="M0 0 C3 1 3 1 3 1 Z " fill="#000000" transform="translate(277,155)"/>
<path d="M0 0 C3 1 3 1 3 1 Z " fill="#000000" transform="translate(265,155)"/>
<path d="" fill="#000000" transform="translate(0,0)"/>
<path d="M0 0 C3 1 3 1 3 1 Z " fill="#000000" transform="translate(277,144)"/>
<path d="" fill="#000000" transform="translate(0,0)"/>
<path d="" fill="#000000" transform="translate(0,0)"/>
<path d="M0 0 C3 1 3 1 3 1 Z " fill="#000000" transform="translate(221,129)"/>
<path d="M0 0 C3 1 3 1 3 1 Z " fill="#000000" transform="translate(277,103)"/>
<path d="M0 0 C0.33 0.66 0.66 1.32 1 2 C0.34 1.67 -0.32 1.34 -1 1 C-0.67 0.67 -0.34 0.34 0 0 Z " fill="#000000" transform="translate(174,79)"/>
<path d="M0 0 C3 1 3 1 3 1 Z " fill="#000000" transform="translate(219,76)"/>
<path d="M0 0 C3 1 3 1 3 1 Z " fill="#000000" transform="translate(208,76)"/>
<path d="" fill="#000000" transform="translate(0,0)"/>
<path d="" fill="#000000" transform="translate(0,0)"/>
<path d="M0 0 C3 1 3 1 3 1 Z " fill="#000000" transform="translate(183,4)"/>
<path d="M0 0 C3 1 3 1 3 1 Z " fill="#000000" transform="translate(172,4)"/>
<path d="" fill="#000000" transform="translate(0,0)"/>
<path d="" fill="#000000" transform="translate(0,0)"/>
<path d="" fill="#000000" transform="translate(0,0)"/>
<path d="" fill="#000000" transform="translate(0,0)"/>
<path d="" fill="#000000" transform="translate(0,0)"/>
<path d="" fill="#000000" transform="translate(0,0)"/>
<path d="M0 0 C2 1 2 1 2 1 Z " fill="#000000" transform="translate(221,264)"/>
<path d="" fill="#000000" transform="translate(0,0)"/>
<path d="M0 0 C2 1 2 1 2 1 Z " fill="#000000" transform="translate(223,263)"/>
<path d="" fill="#000000" transform="translate(0,0)"/>
<path d="M0 0 C2 1 2 1 2 1 Z " fill="#000000" transform="translate(187,255)"/>
<path d="M0 0 C2 1 2 1 2 1 Z " fill="#000000" transform="translate(63,254)"/>
<path d="" fill="#000000" transform="translate(0,0)"/>
<path d="M0 0 C2 1 2 1 2 1 Z " fill="#000000" transform="translate(51,247)"/>
<path d="" fill="#000000" transform="translate(0,0)"/>
<path d="" fill="#000000" transform="translate(0,0)"/>
<path d="" fill="#000000" transform="translate(0,0)"/>
<path d="M0 0 C2 1 2 1 2 1 Z " fill="#000000" transform="translate(222,224)"/>
<path d="M0 0 C2 1 2 1 2 1 Z " fill="#000000" transform="translate(206,224)"/>
<path d="M0 0 C2 1 2 1 2 1 Z " fill="#000000" transform="translate(42,204)"/>
<path d="M0 0 C2 1 2 1 2 1 Z " fill="#000000" transform="translate(280,195)"/>
<path d="" fill="#000000" transform="translate(0,0)"/>
<path d="" fill="#000000" transform="translate(0,0)"/>
<path d="" fill="#000000" transform="translate(0,0)"/>
<path d="" fill="#000000" transform="translate(0,0)"/>
<path d="M0 0 C2 1 2 1 2 1 Z " fill="#000000" transform="translate(183,179)"/>
<path d="M0 0 C2 1 2 1 2 1 Z " fill="#000000" transform="translate(234,170)"/>
<path d="" fill="#000000" transform="translate(0,0)"/>
<path d="" fill="#000000" transform="translate(0,0)"/>
<path d="" fill="#000000" transform="translate(0,0)"/>
<path d="" fill="#000000" transform="translate(0,0)"/>
<path d="" fill="#000000" transform="translate(0,0)"/>
<path d="" fill="#000000" transform="translate(0,0)"/>
<path d="" fill="#000000" transform="translate(0,0)"/>
<path d="" fill="#000000" transform="translate(0,0)"/>
<path d="" fill="#000000" transform="translate(0,0)"/>
<path d="" fill="#000000" transform="translate(0,0)"/>
<path d="M0 0 C2 1 2 1 2 1 Z " fill="#000000" transform="translate(280,156)"/>
<path d="" fill="#000000" transform="translate(0,0)"/>
<path d="M0 0 C2 1 2 1 2 1 Z " fill="#000000" transform="translate(265,144)"/>
<path d="M0 0 C2 1 2 1 2 1 Z " fill="#000000" transform="translate(280,143)"/>
<path d="" fill="#000000" transform="translate(0,0)"/>
<path d="" fill="#000000" transform="translate(0,0)"/>
<path d="" fill="#000000" transform="translate(0,0)"/>
<path d="" fill="#000000" transform="translate(0,0)"/>
<path d="" fill="#000000" transform="translate(0,0)"/>
<path d="" fill="#000000" transform="translate(0,0)"/>
<path d="" fill="#000000" transform="translate(0,0)"/>
<path d="" fill="#000000" transform="translate(0,0)"/>
<path d="" fill="#000000" transform="translate(0,0)"/>
<path d="M0 0 C2 1 2 1 2 1 Z " fill="#000000" transform="translate(219,130)"/>
<path d="M0 0 C2 1 2 1 2 1 Z " fill="#000000" transform="translate(234,129)"/>
<path d="M0 0 C2 1 2 1 2 1 Z " fill="#000000" transform="translate(183,120)"/>
<path d="" fill="#000000" transform="translate(0,0)"/>
<path d="" fill="#000000" transform="translate(0,0)"/>
<path d="" fill="#000000" transform="translate(0,0)"/>
<path d="M0 0 C2 1 2 1 2 1 Z " fill="#000000" transform="translate(19,109)"/>
<path d="M0 0 C2 1 2 1 2 1 Z " fill="#000000" transform="translate(26,105)"/>
<path d="M0 0 C2 1 2 1 2 1 Z " fill="#000000" transform="translate(280,104)"/>
<path d="M0 0 C2 1 2 1 2 1 Z " fill="#000000" transform="translate(222,75)"/>
<path d="M0 0 C2 1 2 1 2 1 Z " fill="#000000" transform="translate(206,75)"/>
<path d="" fill="#000000" transform="translate(0,0)"/>
<path d="" fill="#000000" transform="translate(0,0)"/>
<path d="" fill="#000000" transform="translate(0,0)"/>
<path d="" fill="#000000" transform="translate(0,0)"/>
<path d="M0 0 C2 1 2 1 2 1 Z " fill="#000000" transform="translate(52,51)"/>
<path d="" fill="#000000" transform="translate(0,0)"/>
<path d="" fill="#000000" transform="translate(0,0)"/>
<path d="" fill="#000000" transform="translate(0,0)"/>
<path d="M0 0 C2 1 2 1 2 1 Z " fill="#000000" transform="translate(187,44)"/>
<path d="M0 0 C2 1 2 1 2 1 Z " fill="#000000" transform="translate(169,44)"/>
<path d="M0 0 C2 1 2 1 2 1 Z " fill="#000000" transform="translate(205,36)"/>
<path d="" fill="#000000" transform="translate(0,0)"/>
<path d="M0 0 C2 1 2 1 2 1 Z " fill="#000000" transform="translate(221,35)"/>
<path d="M0 0 C2 1 2 1 2 1 Z " fill="#000000" transform="translate(207,35)"/>
<path d="" fill="#000000" transform="translate(0,0)"/>
<path d="" fill="#000000" transform="translate(0,0)"/>
<path d="" fill="#000000" transform="translate(0,0)"/>
<path d="" fill="#000000" transform="translate(0,0)"/>
<path d="" fill="#000000" transform="translate(0,0)"/>
<path d="" fill="#000000" transform="translate(0,0)"/>
<path d="" fill="#000000" transform="translate(0,0)"/>
<path d="" fill="#000000" transform="translate(0,0)"/>
<path d="" fill="#000000" transform="translate(0,0)"/>
<path d="" fill="#000000" transform="translate(0,0)"/>
<path d="" fill="#000000" transform="translate(0,0)"/>
<path d="" fill="#000000" transform="translate(0,0)"/>
<path d="" fill="#000000" transform="translate(0,0)"/>
<path d="" fill="#000000" transform="translate(0,0)"/>
<path d="" fill="#000000" transform="translate(0,0)"/>
<path d="" fill="#000000" transform="translate(0,0)"/>
<path d="" fill="#000000" transform="translate(0,0)"/>
<path d="" fill="#000000" transform="translate(0,0)"/>
<path d="" fill="#000000" transform="translate(0,0)"/>
<path d="" fill="#000000" transform="translate(0,0)"/>
<path d="" fill="#000000" transform="translate(0,0)"/>
<path d="" fill="#000000" transform="translate(0,0)"/>
<path d="" fill="#000000" transform="translate(0,0)"/>
<path d="" fill="#000000" transform="translate(0,0)"/>
<path d="" fill="#000000" transform="translate(0,0)"/>
<path d="" fill="#000000" transform="translate(0,0)"/>
<path d="" fill="#000000" transform="translate(0,0)"/>
<path d="" fill="#000000" transform="translate(0,0)"/>
<path d="" fill="#000000" transform="translate(0,0)"/>
<path d="" fill="#000000" transform="translate(0,0)"/>
<path d="" fill="#000000" transform="translate(0,0)"/>
<path d="" fill="#000000" transform="translate(0,0)"/>
<path d="" fill="#000000" transform="translate(0,0)"/>
<path d="" fill="#000000" transform="translate(0,0)"/>
<path d="" fill="#000000" transform="translate(0,0)"/>
<path d="" fill="#000000" transform="translate(0,0)"/>
<path d="" fill="#000000" transform="translate(0,0)"/>
<path d="" fill="#000000" transform="translate(0,0)"/>
<path d="" fill="#000000" transform="translate(0,0)"/>
<path d="" fill="#000000" transform="translate(0,0)"/>
<path d="" fill="#000000" transform="translate(0,0)"/>
<path d="" fill="#000000" transform="translate(0,0)"/>
<path d="" fill="#000000" transform="translate(0,0)"/>
<path d="" fill="#000000" transform="translate(0,0)"/>
<path d="" fill="#000000" transform="translate(0,0)"/>
<path d="" fill="#000000" transform="translate(0,0)"/>
<path d="" fill="#000000" transform="translate(0,0)"/>
<path d="" fill="#000000" transform="translate(0,0)"/>
<path d="" fill="#000000" transform="translate(0,0)"/>
<path d="" fill="#000000" transform="translate(0,0)"/>
<path d="" fill="#000000" transform="translate(0,0)"/>
<path d="" fill="#000000" transform="translate(0,0)"/>
<path d="" fill="#000000" transform="translate(0,0)"/>
<path d="" fill="#000000" transform="translate(0,0)"/>
<path d="" fill="#000000" transform="translate(0,0)"/>
<path d="" fill="#000000" transform="translate(0,0)"/>
<path d="" fill="#000000" transform="translate(0,0)"/>
<path d="" fill="#000000" transform="translate(0,0)"/>
<path d="" fill="#000000" transform="translate(0,0)"/>
<path d="" fill="#000000" transform="translate(0,0)"/>
<path d="" fill="#000000" transform="translate(0,0)"/>
<path d="" fill="#000000" transform="translate(0,0)"/>
<path d="" fill="#000000" transform="translate(0,0)"/>
<path d="" fill="#000000" transform="translate(0,0)"/>
<path d="" fill="#000000" transform="translate(0,0)"/>
<path d="" fill="#000000" transform="translate(0,0)"/>
<path d="" fill="#000000" transform="translate(0,0)"/>
<path d="" fill="#000000" transform="translate(0,0)"/>
<path d="" fill="#000000" transform="translate(0,0)"/>
<path d="" fill="#000000" transform="translate(0,0)"/>
<path d="" fill="#000000" transform="translate(0,0)"/>
<path d="" fill="#000000" transform="translate(0,0)"/>
<path d="" fill="#000000" transform="translate(0,0)"/>
<path d="" fill="#000000" transform="translate(0,0)"/>
<path d="" fill="#000000" transform="translate(0,0)"/>
<path d="" fill="#000000" transform="translate(0,0)"/>
<path d="" fill="#000000" transform="translate(0,0)"/>
<path d="" fill="#000000" transform="translate(0,0)"/>
<path d="" fill="#000000" transform="translate(0,0)"/>
<path d="" fill="#000000" transform="translate(0,0)"/>
<path d="" fill="#000000" transform="translate(0,0)"/>
<path d="" fill="#000000" transform="translate(0,0)"/>
<path d="" fill="#000000" transform="translate(0,0)"/>
<path d="" fill="#000000" transform="translate(0,0)"/>
<path d="" fill="#000000" transform="translate(0,0)"/>
<path d="" fill="#000000" transform="translate(0,0)"/>
<path d="" fill="#000000" transform="translate(0,0)"/>
<path d="" fill="#000000" transform="translate(0,0)"/>
<path d="" fill="#000000" transform="translate(0,0)"/>
<path d="" fill="#000000" transform="translate(0,0)"/>
<path d="" fill="#000000" transform="translate(0,0)"/>
<path d="" fill="#000000" transform="translate(0,0)"/>
<path d="" fill="#000000" transform="translate(0,0)"/>
<path d="" fill="#000000" transform="translate(0,0)"/>
<path d="" fill="#000000" transform="translate(0,0)"/>
<path d="" fill="#000000" transform="translate(0,0)"/>
<path d="" fill="#000000" transform="translate(0,0)"/>
<path d="" fill="#000000" transform="translate(0,0)"/>
<path d="" fill="#000000" transform="translate(0,0)"/>
<path d="" fill="#000000" transform="translate(0,0)"/>
<path d="" fill="#000000" transform="translate(0,0)"/>
<path d="" fill="#000000" transform="translate(0,0)"/>
<path d="" fill="#000000" transform="translate(0,0)"/>
<path d="" fill="#000000" transform="translate(0,0)"/>
<path d="" fill="#000000" transform="translate(0,0)"/>
<path d="" fill="#000000" transform="translate(0,0)"/>
<path d="" fill="#000000" transform="translate(0,0)"/>
<path d="" fill="#000000" transform="translate(0,0)"/>
<path d="" fill="#000000" transform="translate(0,0)"/>
<path d="" fill="#000000" transform="translate(0,0)"/>
<path d="" fill="#000000" transform="translate(0,0)"/>
<path d="" fill="#000000" transform="translate(0,0)"/>
<path d="" fill="#000000" transform="translate(0,0)"/>
<path d="" fill="#000000" transform="translate(0,0)"/>
<path d="" fill="#000000" transform="translate(0,0)"/>
<path d="" fill="#000000" transform="translate(0,0)"/>
<path d="" fill="#000000" transform="translate(0,0)"/>
<path d="" fill="#000000" transform="translate(0,0)"/>
<path d="" fill="#000000" transform="translate(0,0)"/>
<path d="" fill="#000000" transform="translate(0,0)"/>
<path d="" fill="#000000" transform="translate(0,0)"/>
<path d="" fill="#000000" transform="translate(0,0)"/>
<path d="" fill="#000000" transform="translate(0,0)"/>
<path d="" fill="#000000" transform="translate(0,0)"/>
<path d="" fill="#000000" transform="translate(0,0)"/>
<path d="" fill="#000000" transform="translate(0,0)"/>
<path d="" fill="#000000" transform="translate(0,0)"/>
<path d="" fill="#000000" transform="translate(0,0)"/>
<path d="" fill="#000000" transform="translate(0,0)"/>
<path d="" fill="#000000" transform="translate(0,0)"/>
<path d="" fill="#000000" transform="translate(0,0)"/>
<path d="" fill="#000000" transform="translate(0,0)"/>
<path d="" fill="#000000" transform="translate(0,0)"/>
<path d="" fill="#000000" transform="translate(0,0)"/>
<path d="" fill="#000000" transform="translate(0,0)"/>
<path d="" fill="#000000" transform="translate(0,0)"/>
<path d="" fill="#000000" transform="translate(0,0)"/>
<path d="" fill="#000000" transform="translate(0,0)"/>
<path d="" fill="#000000" transform="translate(0,0)"/>
<path d="" fill="#000000" transform="translate(0,0)"/>
<path d="" fill="#000000" transform="translate(0,0)"/>
<path d="" fill="#000000" transform="translate(0,0)"/>
<path d="" fill="#000000" transform="translate(0,0)"/>
<path d="" fill="#000000" transform="translate(0,0)"/>
<path d="" fill="#000000" transform="translate(0,0)"/>
<path d="" fill="#000000" transform="translate(0,0)"/>
<path d="" fill="#000000" transform="translate(0,0)"/>
<path d="" fill="#000000" transform="translate(0,0)"/>
<path d="" fill="#000000" transform="translate(0,0)"/>
<path d="" fill="#000000" transform="translate(0,0)"/>
<path d="" fill="#000000" transform="translate(0,0)"/>
<path d="" fill="#000000" transform="translate(0,0)"/>
<path d="" fill="#000000" transform="translate(0,0)"/>
<path d="" fill="#000000" transform="translate(0,0)"/>
<path d="" fill="#000000" transform="translate(0,0)"/>
<path d="" fill="#000000" transform="translate(0,0)"/>
<path d="" fill="#000000" transform="translate(0,0)"/>
<path d="" fill="#000000" transform="translate(0,0)"/>
<path d="" fill="#000000" transform="translate(0,0)"/>
<path d="" fill="#000000" transform="translate(0,0)"/>
<path d="" fill="#000000" transform="translate(0,0)"/>
<path d="" fill="#000000" transform="translate(0,0)"/>
<path d="" fill="#000000" transform="translate(0,0)"/>
<path d="" fill="#000000" transform="translate(0,0)"/>
<path d="" fill="#000000" transform="translate(0,0)"/>
<path d="" fill="#000000" transform="translate(0,0)"/>
<path d="" fill="#000000" transform="translate(0,0)"/>
<path d="" fill="#000000" transform="translate(0,0)"/>
<path d="" fill="#000000" transform="translate(0,0)"/>
<path d="" fill="#000000" transform="translate(0,0)"/>
<path d="" fill="#000000" transform="translate(0,0)"/>
<path d="" fill="#000000" transform="translate(0,0)"/>
<path d="" fill="#000000" transform="translate(0,0)"/>
<path d="" fill="#000000" transform="translate(0,0)"/>
<path d="" fill="#000000" transform="translate(0,0)"/>
<path d="" fill="#000000" transform="translate(0,0)"/>
<path d="" fill="#000000" transform="translate(0,0)"/>
<path d="" fill="#000000" transform="translate(0,0)"/>
<path d="" fill="#000000" transform="translate(0,0)"/>
<path d="" fill="#000000" transform="translate(0,0)"/>
<path d="" fill="#000000" transform="translate(0,0)"/>
<path d="" fill="#000000" transform="translate(0,0)"/>
<path d="" fill="#000000" transform="translate(0,0)"/>
<path d="" fill="#000000" transform="translate(0,0)"/>
<path d="" fill="#000000" transform="translate(0,0)"/>
<path d="" fill="#000000" transform="translate(0,0)"/>
<path d="" fill="#000000" transform="translate(0,0)"/>
<path d="" fill="#000000" transform="translate(0,0)"/>
<path d="" fill="#000000" transform="translate(0,0)"/>
<path d="" fill="#000000" transform="translate(0,0)"/>
<path d="" fill="#000000" transform="translate(0,0)"/>
<path d="" fill="#000000" transform="translate(0,0)"/>
<path d="" fill="#000000" transform="translate(0,0)"/>
<path d="" fill="#000000" transform="translate(0,0)"/>
<path d="" fill="#000000" transform="translate(0,0)"/>
<path d="" fill="#000000" transform="translate(0,0)"/>
<path d="" fill="#000000" transform="translate(0,0)"/>
<path d="" fill="#000000" transform="translate(0,0)"/>
<path d="" fill="#000000" transform="translate(0,0)"/>
<path d="" fill="#000000" transform="translate(0,0)"/>
<path d="" fill="#000000" transform="translate(0,0)"/>
<path d="" fill="#000000" transform="translate(0,0)"/>
<path d="" fill="#000000" transform="translate(0,0)"/>
<path d="" fill="#000000" transform="translate(0,0)"/>
<path d="" fill="#000000" transform="translate(0,0)"/>
<path d="" fill="#000000" transform="translate(0,0)"/>
<path d="" fill="#000000" transform="translate(0,0)"/>
<path d="" fill="#000000" transform="translate(0,0)"/>
</svg>
