<?xml version="1.0" encoding="UTF-8"?>
<svg version="1.1" xmlns="http://www.w3.org/2000/svg" width="300" height="300">
<path d="M0 0 C5.41471339 2.99516243 10.42155717 5.82912198 13.12545776 11.58867645 C15.00788293 19.28179219 14.61414646 27.10699382 14.20493889 34.96138334 C14.05331216 38.37009838 14.04069465 41.77950451 14.0123291 45.19107056 C13.93815887 51.63045726 13.74193588 58.05988765 13.49994135 64.4949156 C13.23023264 71.82862885 13.09938746 79.16285858 12.97925091 86.5003078 C12.72938475 101.57392098 12.30821691 116.63825357 11.77148438 131.70458984 C7.62302813 130.9678645 4.74082273 129.74311602 1.10351562 127.57958984 C-0.48299805 126.64373047 -0.48299805 126.64373047 -2.1015625 125.68896484 C-3.19533203 125.03412109 -4.28910156 124.37927734 -5.41601562 123.70458984 C-7.5968321 122.41263093 -9.77781323 121.12094989 -11.95898438 119.82958984 C-12.92215576 119.25466797 -13.88532715 118.67974609 -14.87768555 118.08740234 C-16.30292911 117.24904119 -17.74955149 116.44407191 -19.22851562 115.70458984 C-19.41723398 118.68633989 -19.45967613 120.04911985 -18.22851562 122.70458984 C-14.81951834 125.45590277 -10.99561958 127.34556612 -7.10351562 129.32958984 C-5.03651661 130.42236738 -2.97136615 131.51864961 -0.90820312 132.61865234 C0.01234863 133.09254395 0.93290039 133.56643555 1.88134766 134.0546875 C2.83509277 134.59915527 3.78883789 135.14362305 4.77148438 135.70458984 C5.35795494 136.01366083 5.94442551 136.32273182 6.54866791 136.64116859 C9.28236221 138.27743087 11.36547643 139.54704704 12.4487133 142.63539314 C12.74063639 145.0308075 12.80876239 147.34498566 12.80419922 149.75830078 C12.8293158 150.66140991 12.85443237 151.56451904 12.88031006 152.49499512 C12.95182747 155.47696449 12.97043393 158.45619894 12.98242188 161.43896484 C13.00746494 163.5177721 13.033408 165.5965687 13.06021118 167.675354 C13.10662799 172.03332402 13.12360253 176.39033112 13.12353516 180.74853516 C13.12840875 186.32067497 13.23424304 191.88584869 13.36614037 197.45623398 C13.45171582 201.75121431 13.46885174 206.04452728 13.46721268 210.34027863 C13.47728766 212.39293109 13.51170529 214.44561966 13.57139206 216.49742889 C13.98517816 232.10897798 13.98517816 232.10897798 10.31751251 236.40940857 C6.76729866 239.30716803 2.87343867 241.12520261 -1.34560776 242.84386444 C-4.36046305 244.222032 -6.82659484 246.16175734 -9.47851562 248.14208984 C-14.31851268 250.89223386 -14.31851268 250.89223386 -17.74804688 250.18505859 C-20.29101562 248.82958984 -20.29101562 248.82958984 -22.94335938 246.86865234 C-25.87924878 244.93466574 -27.81708573 244.13751534 -31.10742188 243.16552734 C-36.98661694 241.13246801 -41.85330639 239.16188368 -45.22851562 233.70458984 C-47.33232187 225.74451046 -46.7471001 217.07296856 -46.40087891 208.92529297 C-46.3683905 208.08522705 -46.3359021 207.24516113 -46.3024292 206.37963867 C-46.22841688 204.77048055 -46.12673997 203.16230244 -45.9944458 201.55688477 C-45.80041534 199.11305874 -45.80041534 199.11305874 -46.22851562 195.70458984 C-47.87851563 194.71458984 -49.52851562 193.72458984 -51.22851562 192.70458984 C-51.55851562 204.58458984 -51.88851562 216.46458984 -52.22851562 228.70458984 C-55.19851562 227.71458984 -55.19851562 227.71458984 -58.22851562 226.70458984 C-59.4744751 226.32185913 -59.4744751 226.32185913 -60.74560547 225.93139648 C-67.65910247 223.62114199 -73.88512363 220.74424959 -78.22851562 214.70458984 C-81.8756902 204.19206538 -82.81907547 190.10090797 -78.22851562 179.70458984 C-72.69846847 172.90054609 -64.87669739 169.55418504 -56.7722168 166.66137695 C-54.04293911 165.74427984 -54.04293911 165.74427984 -51.22851562 163.70458984 C-46.59985895 163.99877735 -43.40637175 165.47116868 -39.46289062 167.82958984 C-38.4084375 168.45349609 -37.35398437 169.07740234 -36.26757812 169.72021484 C-35.1821875 170.37505859 -34.09679687 171.02990234 -32.97851562 171.70458984 C-30.80675852 172.99645473 -28.63488931 174.28813117 -26.46289062 175.57958984 C-25.50608398 176.15451172 -24.54927734 176.72943359 -23.56347656 177.32177734 C-22.14471519 178.16199738 -20.70333182 178.96718174 -19.22851562 179.70458984 C-19.22851562 192.24458984 -19.22851562 204.78458984 -19.22851562 217.70458984 C-17.57851562 218.36458984 -15.92851563 219.02458984 -14.22851562 219.70458984 C-13.89851563 205.18458984 -13.56851563 190.66458984 -13.22851562 175.70458984 C-14.87851563 175.04458984 -16.52851562 174.38458984 -18.22851562 173.70458984 C-20.17565732 172.69095294 -22.10689603 171.64645396 -24.02539062 170.57958984 C-25.69831177 169.65073975 -25.69831177 169.65073975 -27.4050293 168.703125 C-28.59630882 168.03715659 -29.78746852 167.37097382 -30.97851562 166.70458984 C-32.20417505 166.02147021 -33.42984242 165.33836484 -34.65551758 164.65527344 C-41.95488948 160.57898431 -49.20630884 156.42927201 -56.39135742 152.15429688 C-63.59513281 147.87067676 -70.90759871 143.78380869 -78.22851562 139.70458984 C-78.63056569 142.56024966 -78.63056569 142.56024966 -78.22851562 145.70458984 C-76.21971225 147.7181497 -76.21971225 147.7181497 -73.41601562 149.13427734 C-72.4234375 149.70146484 -71.43085937 150.26865234 -70.40820312 150.85302734 C-68.83425781 151.70767578 -68.83425781 151.70767578 -67.22851562 152.57958984 C-66.17921875 153.17255859 -65.12992188 153.76552734 -64.04882812 154.37646484 C-61.45267798 155.83974947 -58.84657356 157.28098919 -56.22851562 158.70458984 C-60.24107908 162.94067232 -64.65867366 165.59772216 -69.66601562 168.51708984 C-70.93541992 169.28956055 -70.93541992 169.28956055 -72.23046875 170.07763672 C-73.05353516 170.55910156 -73.87660156 171.04056641 -74.72460938 171.53662109 C-75.4689624 171.97723877 -76.21331543 172.41785645 -76.98022461 172.87182617 C-79.90926021 173.95673663 -81.26589963 173.66768998 -84.22851562 172.70458984 C-86.32355885 171.64763266 -88.37992051 170.51238698 -90.40429688 169.32568359 C-91.44755127 168.71909912 -92.49080566 168.11251465 -93.56567383 167.48754883 C-94.87753662 166.71354736 -96.18939941 165.9395459 -97.54101562 165.14208984 C-101.72789063 162.68771484 -105.91476563 160.23333984 -110.22851562 157.70458984 C-110.22851562 146.48458984 -110.22851562 135.26458984 -110.22851562 123.70458984 C-97.54101562 116.39208984 -97.54101562 116.39208984 -93.56567383 114.10180664 C-92.00079224 113.19942261 -92.00079224 113.19942261 -90.40429688 112.27880859 C-89.34122314 111.66610107 -88.27814941 111.05339355 -87.18286133 110.42211914 C-85.72046021 109.57194214 -85.72046021 109.57194214 -84.22851562 108.70458984 C-82.83088989 108.06807495 -82.83088989 108.06807495 -81.4050293 107.41870117 C-78.83346301 105.76614371 -78.83346301 105.76614371 -78.41601562 102.01708984 C-78.35414062 100.92396484 -78.29226562 99.83083984 -78.22851562 98.70458984 C-79.05577148 99.17880371 -79.88302734 99.65301758 -80.73535156 100.14160156 C-83.81349691 101.90572491 -86.89246493 103.6684081 -89.97167969 105.43066406 C-91.3026328 106.19264282 -92.63336443 106.95500858 -93.96386719 107.71777344 C-95.87962254 108.81596802 -97.79617793 109.91275469 -99.71289062 111.00927734 C-100.3047113 111.34893524 -100.89653198 111.68859314 -101.50628662 112.0385437 C-104.37606425 113.67852717 -107.25151071 115.26719477 -110.22851562 116.70458984 C-111.70240567 106.90700026 -113.23173595 96.32377012 -110.22851562 86.70458984 C-104.72336251 80.11238745 -96.62916835 76.79780271 -88.7722168 73.74072266 C-86.05287818 72.73182447 -86.05287818 72.73182447 -83.22851562 70.70458984 C-78.59450452 70.99934675 -75.38283756 72.47977582 -71.42773438 74.82958984 C-70.36876953 75.45349609 -69.30980469 76.07740234 -68.21875 76.72021484 C-66.58389648 77.70248047 -66.58389648 77.70248047 -64.91601562 78.70458984 C-63.80677734 79.35943359 -62.69753906 80.01427734 -61.5546875 80.68896484 C-53.42517916 85.50792631 -53.42517916 85.50792631 -52.22851562 86.70458984 C-52.13996402 89.37085015 -52.11326889 92.01106099 -52.13085938 94.67724609 C-52.13227432 95.47488876 -52.13368927 96.27253143 -52.13514709 97.09434509 C-52.14076246 99.6519642 -52.15331751 102.20949702 -52.16601562 104.76708984 C-52.17102865 106.49690629 -52.1755919 108.22672411 -52.1796875 109.95654297 C-52.19073688 114.20592537 -52.20801176 118.45524296 -52.22851562 122.70458984 C-50.24851563 121.71458984 -48.26851562 120.72458984 -46.22851562 119.70458984 C-46.26630127 118.74681641 -46.30408691 117.78904297 -46.34301758 116.80224609 C-46.46694783 113.21603405 -46.5036745 109.63310962 -46.51538086 106.04492188 C-46.53231857 104.49858931 -46.57227365 102.95231864 -46.63647461 101.40722656 C-46.84183367 96.23484951 -46.73798966 91.68771207 -45.22851562 86.70458984 C-41.39443747 82.87860566 -37.13374946 80.89571773 -32.22851562 78.70458984 C-30.57384485 77.74088894 -28.93210823 76.75426686 -27.31054688 75.73583984 C-25.88811646 74.89083168 -24.46496404 74.04703746 -23.04101562 73.20458984 C-22.30560547 72.76373047 -21.57019531 72.32287109 -20.8125 71.86865234 C-15.46208997 68.70458984 -15.46208997 68.70458984 -13.22851562 68.70458984 C-13.22851562 56.16458984 -13.22851562 43.62458984 -13.22851562 30.70458984 C-15.20851563 31.36458984 -17.18851562 32.02458984 -19.22851562 32.70458984 C-19.22851562 43.26458984 -19.22851562 53.82458984 -19.22851562 64.70458984 C-23.74539062 67.36521484 -28.26226562 70.02583984 -32.91601562 72.76708984 C-34.33229248 73.61150635 -35.74856934 74.45592285 -37.20776367 75.32592773 C-38.332229 75.97811279 -39.45669434 76.63029785 -40.61523438 77.30224609 C-41.19422485 77.65283081 -41.77321533 78.00341553 -42.36975098 78.36462402 C-44.93491591 79.83253815 -46.77069945 80.71838801 -49.75585938 80.62841797 C-52.84774536 79.47323466 -55.55548653 77.99567587 -58.40429688 76.32568359 C-58.97431931 75.99415787 -59.54434174 75.66263214 -60.13163757 75.32106018 C-61.93872663 74.26801921 -63.73986837 73.20525534 -65.54101562 72.14208984 C-66.77045275 71.42333949 -68.00026682 70.70523351 -69.23046875 69.98779297 C-72.23421646 68.2341617 -75.23271306 66.47176785 -78.22851562 64.70458984 C-78.4517641 59.68779593 -78.61463571 54.67391454 -78.72290039 49.65332031 C-78.76803981 47.94772981 -78.82937286 46.24248533 -78.9074707 44.53808594 C-79.53700093 30.4415464 -79.53700093 30.4415464 -76.48388672 26.38867188 C-74.12870977 24.79598791 -71.86834415 23.74987905 -69.22851562 22.70458984 C-67.76894583 21.87315891 -66.32036159 21.02207526 -64.88476562 20.14990234 C-63.5014306 19.37274784 -62.11602583 18.59926532 -60.72851562 17.82958984 C-60.014375 17.42740234 -59.30023438 17.02521484 -58.56445312 16.61083984 C-53.36483578 13.70458984 -53.36483578 13.70458984 -52.22851562 13.70458984 C-51.89851563 24.26458984 -51.56851563 34.82458984 -51.22851562 45.70458984 C-49.57851562 44.71458984 -47.92851563 43.72458984 -46.22851562 42.70458984 C-45.81105278 40.05835678 -45.71482161 38.03432205 -45.83789062 35.40380859 C-45.85067634 33.93702063 -45.86236021 32.47022273 -45.87304688 31.00341797 C-45.91866007 28.69848047 -45.97839465 26.39550292 -46.06005859 24.09155273 C-46.45921241 11.2621986 -46.45921241 11.2621986 -43.4987793 7.51538086 C-41.14700962 5.92799393 -38.83464459 4.81975786 -36.22851562 3.70458984 C-34.68234233 2.7867013 -33.14685977 1.85054599 -31.62304688 0.89599609 C-30.09795301 0.0157842 -28.57060582 -0.86053518 -27.04101562 -1.73291016 C-26.27337891 -2.19117188 -25.50574219 -2.64943359 -24.71484375 -3.12158203 C-23.5865918 -3.76256836 -23.5865918 -3.76256836 -22.43554688 -4.41650391 C-21.77014893 -4.80249756 -21.10475098 -5.18849121 -20.41918945 -5.58618164 C-13.73395675 -7.75051921 -5.82087639 -2.96396394 0 0 Z " fill="#F8F8F8" transform="translate(125.228515625,28.29541015625)"/>
<path d="M0 0 C3.920909 3.37380541 6.35769549 5.86252365 7.0703125 11.15625 C7.24846164 15.95440023 7.10097955 19.42192866 5.0625 23.8125 C0.4850253 28.63089443 -3.46898639 30.92513387 -10.06640625 31.42578125 C-13.67118581 31.24397498 -16.12159894 29.97176855 -19.3125 28.3125 C-20.3025 27.9825 -21.2925 27.6525 -22.3125 27.3125 C-26.9325 29.9525 -31.5525 32.5925 -36.3125 35.3125 C-36.3125 105.9325 -36.3125 176.5525 -36.3125 249.3125 C-31.6925 251.9525 -27.0725 254.5925 -22.3125 257.3125 C-19.70108767 256.26793507 -17.09108547 255.21901387 -14.5 254.125 C-9.07059525 252.74103408 -5.01542333 253.42828981 -0.0625 256 C3.91711818 259.3464971 6.35431857 261.83743795 7.0703125 267.15625 C7.24846164 271.95440023 7.10097955 275.42192866 5.0625 279.8125 C0.7736278 284.32710232 -3.07600643 286.89389209 -9.3046875 287.33203125 C-13.76594088 287.28863384 -16.93905107 286.58451658 -20.26953125 283.5 C-24.36815836 278.9589549 -26.46559101 275.87577947 -26.375 269.625 C-26.36597656 268.81675781 -26.35695312 268.00851562 -26.34765625 267.17578125 C-26.33605469 266.56089844 -26.32445312 265.94601562 -26.3125 265.3125 C-26.98667969 265.06757813 -27.66085938 264.82265625 -28.35546875 264.5703125 C-31.95340714 263.03988164 -35.25126063 261.15406692 -38.625 259.1875 C-39.27017578 258.81496094 -39.91535156 258.44242187 -40.58007812 258.05859375 C-42.15925945 257.14617787 -43.73611864 256.22974491 -45.3125 255.3125 C-45.70062901 226.69225479 -46.00132177 198.07232082 -46.1806106 169.44996021 C-46.20187166 166.06803555 -46.22387523 162.6861161 -46.24633789 159.30419922 C-46.25079717 158.63094338 -46.25525645 157.95768755 -46.25985085 157.26403002 C-46.33375056 146.37387568 -46.46774145 135.4852527 -46.62409753 124.59600575 C-46.78328761 113.41582267 -46.87627058 102.23616194 -46.91200441 91.05483282 C-46.93415611 84.77638799 -46.98613197 78.50141114 -47.10991096 72.22407913 C-47.22554946 66.31153327 -47.2608577 60.40387234 -47.23533058 54.49030304 C-47.2399977 52.32373077 -47.27369532 50.15699093 -47.33899307 47.99139786 C-47.79650664 32.03157871 -47.79650664 32.03157871 -43.5836761 27.42007017 C-38.98349907 23.77570713 -32.39020166 19.3125 -26.3125 19.3125 C-26.36470703 18.44238281 -26.36470703 18.44238281 -26.41796875 17.5546875 C-26.59907276 12.32854329 -26.37254749 8.75450441 -23.3125 4.3125 C-16.34513535 -2.85681725 -9.23609145 -4.70517866 0 0 Z M-13.5625 9.4375 C-15.5880903 11.26142148 -15.5880903 11.26142148 -15.8125 14.3125 C-15.56895107 17.33984237 -15.56895107 17.33984237 -13.6875 19.25 C-10.47416762 20.68754343 -8.64335144 20.32623739 -5.3125 19.3125 C-2.99211905 16.48681454 -2.99211905 16.48681454 -3.5 13.25 C-4.05004498 10.01509047 -4.05004498 10.01509047 -7.3125 8.3125 C-11.13547795 8.0143576 -11.13547795 8.0143576 -13.5625 9.4375 Z M-13.5625 265.4375 C-15.59558178 267.2589041 -15.59558178 267.2589041 -15.75 270.3125 C-15.50231333 273.23388639 -15.50231333 273.23388639 -14.25 275.25 C-11.09683176 276.97915678 -8.68741745 276.1715699 -5.3125 275.3125 C-2.99211905 272.48681454 -2.99211905 272.48681454 -3.5 269.25 C-4.05004498 266.01509047 -4.05004498 266.01509047 -7.3125 264.3125 C-11.13547795 264.0143576 -11.13547795 264.0143576 -13.5625 265.4375 Z " fill="#1FC392" transform="translate(189.3125,7.6875)"/>
<path d="M0 0 C3.44012847 0.07080463 6.84194168 -0.0400071 10.27978516 -0.16748047 C19.66822978 -0.24999146 27.57977253 -0.08045828 34.91650391 6.32226562 C38.10466907 9.45766922 40.92281838 12.78113452 43.74023438 16.24755859 C46.3414513 19.30157901 47.93157229 20.75310815 51.96289062 21.23046875 C55.77738805 21.15997584 55.77738805 21.15997584 59.33056641 20.43798828 C63.64038164 20.11527265 65.2747598 21.51928289 68.56494141 24.19580078 C72.56468039 28.62794398 73.95682028 31.95765445 73.83447266 38.00830078 C73.24609912 42.78350631 71.35447866 46.52745115 67.83447266 49.80908203 C62.92461456 53.2881232 58.48449847 54.18606126 52.56494141 53.19580078 C46.89018028 51.23146039 43.2509381 47.56779417 40.56494141 42.19580078 C40.79503906 40.75333984 40.79503906 40.75333984 41.02978516 39.28173828 C41.9470826 32.07981624 41.09946399 26.52147416 36.97753906 20.41479492 C30.83770292 13.00791529 24.07282404 10.57464701 14.74853516 9.59423828 C-5.29676529 7.74514579 -5.29676529 7.74514579 -23.10302734 15.04345703 C-25.2007879 17.29614106 -26.99999061 19.61253506 -28.79980469 22.10742188 C-33.11110994 27.83760696 -33.11110994 27.83760696 -37.41113281 29.00097656 C-44.45480301 29.68521881 -51.44002477 29.17187255 -58.43505859 28.19580078 C-58.43505859 25.22580078 -58.43505859 22.25580078 -58.43505859 19.19580078 C-57.17693359 19.30923828 -55.91880859 19.42267578 -54.62255859 19.53955078 C-44.99953804 20.20143392 -44.99953804 20.20143392 -36.46453857 16.60565186 C-34.6920532 14.53224949 -33.03106937 12.39425317 -31.36474609 10.23486328 C-22.37600574 0.0972226 -13.00500842 -0.33945465 0 0 Z M52.81494141 32.38330078 C50.2710979 34.94552887 50.2710979 34.94552887 50.62744141 37.88330078 C51.44797561 40.33859498 51.44797561 40.33859498 53.56494141 42.19580078 C56.66265806 42.52534511 58.73825163 42.64914679 61.50244141 41.13330078 C63.23159818 37.98013254 62.4240113 35.57071823 61.56494141 32.19580078 C57.58328658 29.54136423 56.58338375 29.38567619 52.81494141 32.38330078 Z " fill="#1EBD8E" transform="translate(218.43505859375,86.80419921875)"/>
<path d="M0 0 C5.19970871 2.9017101 8.09190782 6.44263132 9.7734375 12.1640625 C10.6407652 17.47769082 9.76885017 21.67094349 6.7734375 26.1640625 C4.35062845 28.55456743 1.83552617 30.63301817 -1.2265625 32.1640625 C-2.165 31.98746094 -3.1034375 31.81085938 -4.0703125 31.62890625 C-8.38243825 31.00696504 -12.10542442 30.67445713 -16.2265625 32.1640625 C-18.42779764 34.12792336 -20.18412542 36.26410189 -22.04348755 38.55288696 C-28.20539466 46.08617458 -33.62751882 51.07911701 -43.50604248 52.29972839 C-47.99433392 52.55156369 -52.43042332 52.5674376 -56.92236328 52.40087891 C-60.36546616 52.28860914 -63.77171448 52.35934674 -67.21484375 52.44921875 C-77.67643785 52.4554532 -85.50450347 51.99036099 -93.17404175 44.36056519 C-94.46115558 42.90893826 -95.70347257 41.41585376 -96.88870239 39.87991333 C-100.24110056 35.58436085 -102.32692961 33.70248064 -107.84423828 32.90673828 C-112.67946923 32.53372002 -117.40130856 32.72899862 -122.2265625 33.1640625 C-122.2265625 30.1940625 -122.2265625 27.2240625 -122.2265625 24.1640625 C-114.33682894 23.06314627 -106.00317869 22.06010186 -98.2265625 24.1640625 C-95.16631547 26.56297603 -93.1153348 29.52604079 -90.8515625 32.6640625 C-86.1386097 38.75678191 -81.65891879 41.52572371 -74.09335327 42.58769226 C-60.23435676 43.96677078 -42.03411184 45.3914977 -30.58520508 36.16333008 C-24.99347048 30.35136717 -22.46054324 25.10475743 -22.4765625 17.0390625 C-22.66734375 15.86085937 -22.858125 14.68265625 -23.0546875 13.46875 C-23.27991253 9.13828699 -21.9158036 7.47206704 -19.2265625 4.1640625 C-13.62149128 -0.89417251 -7.26642378 -2.72809595 0 0 Z M-12.1640625 11.8515625 C-13.41526498 14.12823323 -13.41526498 14.12823323 -13.1640625 16.7265625 C-12.01108673 19.72429951 -11.0953104 20.72968855 -8.2265625 22.1640625 C-5.59118742 22.17041496 -5.59118742 22.17041496 -3.2265625 21.1640625 C-0.84929018 18.25967261 -0.84929018 18.25967261 -1.4765625 14.5390625 C-1.7240625 13.4253125 -1.9715625 12.3115625 -2.2265625 11.1640625 C-5.79046083 9.38211333 -9.10002512 9.18288478 -12.1640625 11.8515625 Z " fill="#1EBC8D" transform="translate(282.2265625,160.8359375)"/>
<path d="M0 0 C3.95150923 3.49203141 6.30021295 6.62917831 7.03515625 11.83984375 C7.21569421 17.0597457 6.72669375 20.97340905 3.6875 25.375 C-0.1693199 29.12758152 -4.0071677 31.32149642 -9.484375 31.41015625 C-14.73950082 31.04864592 -18.22101904 29.88198368 -22.3125 26.375 C-24.49952362 23.38606771 -25.3125 22.09555546 -25.3125 18.375 C-43.4625 18.375 -61.6125 18.375 -80.3125 18.375 C-80.3125 15.735 -80.3125 13.095 -80.3125 10.375 C-62.1625 10.375 -44.0125 10.375 -25.3125 10.375 C-24.9825 8.725 -24.6525 7.075 -24.3125 5.375 C-17.66431904 -2.83745884 -9.26313382 -4.54417885 0 0 Z M-14.125 9.5 C-15.86448782 12.24655972 -15.71019128 14.19346974 -15.3125 17.375 C-14.24904948 19.35529682 -14.24904948 19.35529682 -12.3125 20.375 C-9.85577108 21.04185938 -9.85577108 21.04185938 -7.3125 20.375 C-4.97619252 17.97640956 -4.97619252 17.97640956 -3.3125 15.375 C-4.38651108 12.45982708 -5.09060176 10.59689824 -7.3125 8.375 C-10.12234248 8.01476378 -11.69491919 7.99167398 -14.125 9.5 Z " fill="#F5F5F5" transform="translate(240.3125,135.625)"/>
<path d="M0 0 C4.34624343 -1.18533912 7.65348554 -1.25238552 12 0 C14.96575716 2.39404494 17.457473 5.16841117 20 8 C25.01049533 13.70776758 25.01049533 13.70776758 31.546875 17.2734375 C34.76940891 17.3756154 37.01163245 17.19931169 40 16 C42.57078214 13.35221388 42.57078214 13.35221388 44 10 C48.49875908 5.94014425 51.75808784 4.67675391 57.87890625 4.7890625 C62.90105779 5.28850298 66.61253181 7.24208535 69.875 11 C73.4895676 16.10291896 73.68322799 20.917373 73 27 C70.50665497 31.98669007 67.00649051 35.49675474 62 38 C56.74424835 38.5238576 52.35473905 38.66505372 47.5625 36.3125 C44.46425319 33.51652117 41.87519266 30.75038531 40 27 C38.3443776 27.08096995 36.68884529 27.16743335 35.03515625 27.28125 C30.09399709 27.50208393 25.92426942 27.39643312 21.80517578 24.40722656 C18.86082796 21.67132221 16.17418715 18.79852178 13.58178711 15.72802734 C9.45419047 10.84832437 9.45419047 10.84832437 3.53125 9 C2.3659375 9 1.200625 9 0 9 C0 6.03 0 3.06 0 0 Z M51 18 C49.9853761 19.8064655 49.9853761 19.8064655 50 22 C51.3504575 25.22609291 52.16468327 26.65730596 55.4375 28 C58.0463176 28.19934483 58.0463176 28.19934483 60.25 26.8125 C62.21376091 24.77860477 62.82961636 23.81133007 63 21 C62.65106834 18.71835976 62.65106834 18.71835976 61 17 C55.72409518 15.64130611 55.72409518 15.64130611 51 18 Z " fill="#EFEFEF" transform="translate(160,225)"/>
<path d="M0 0 C5.00230198 2.45567552 8.49851535 5.9970307 11 11 C11.55713132 16.95701945 11.52180186 21.95208399 8 27 C4.01429494 31.00748487 0.449848 33.12316938 -5.25 33.3125 C-10.28987188 33.24694069 -12.92926195 31.95328055 -17 29 C-21 24.79487179 -21 24.79487179 -21 21 C-25.49346868 20.32290198 -29.78237116 20.17759345 -34 22 C-37.75952117 25.05202001 -40.86552871 28.72715053 -44.08984375 32.32421875 C-49.17164875 37.76194784 -49.17164875 37.76194784 -53.68359375 39.05859375 C-56.62319756 39.00665729 -59.16850828 38.77222501 -62 38 C-62 35.03 -62 32.06 -62 29 C-60.8346875 29 -59.669375 29 -58.46875 29 C-52.62696837 28.27106064 -50.11260684 24.27905466 -46.5 20 C-41.88701547 14.8984914 -38.4625385 11.19373388 -31.36523438 10.8125 C-29.348654 10.87208502 -27.33680093 11.05412422 -25.328125 11.2421875 C-24.22984375 11.16226563 -23.1315625 11.08234375 -22 11 C-19.62688768 8.22161488 -19.62688768 8.22161488 -18 5 C-12.09652224 -0.20068279 -7.76521275 -0.7907996 0 0 Z M-11 13 C-12.08568503 14.84267868 -12.08568503 14.84267868 -12 17 C-11.15254366 19.85701707 -11.15254366 19.85701707 -9 22 C-5.5 22.83333333 -5.5 22.83333333 -2 22 C0.24300635 19.92836371 0.24300635 19.92836371 1 17 C0.10394232 13.14695198 -0.65153899 12.23230734 -4 10 C-7.5595477 10 -8.44549506 10.61579539 -11 13 Z " fill="#EFEFEF" transform="translate(222,37)"/>
</svg>
